mtllib frame.mtl

v  -475.000000 0.000000 -300.000000
v  -475.000000 0.000000 -300.000000
v  -475.000000 0.000000 -300.000000
v  -475.000000 0.000000 300.000000
v  -475.000000 0.000000 300.000000
v  -475.000000 0.000000 300.000000
v  475.000000 0.000000 300.000000
v  475.000000 0.000000 300.000000
v  475.000000 0.000000 300.000000
v  475.000000 0.000000 -300.000000
v  475.000000 0.000000 -300.000000
v  475.000000 0.000000 -300.000000
v  -450.000000 0.000000 -275.000000
v  -450.000000 0.000000 -275.000000
v  -450.000000 0.000000 -275.000000
v  450.000000 0.000000 -275.000000
v  450.000000 0.000000 -275.000000
v  450.000000 0.000000 -275.000000
v  450.000000 0.000000 275.000000
v  450.000000 0.000000 275.000000
v  450.000000 0.000000 275.000000
v  -450.000000 0.000000 275.000000
v  -450.000000 0.000000 275.000000
v  -450.000000 0.000000 275.000000
v  -475.000000 720.000000 -300.000000
v  -475.000000 720.000000 -300.000000
v  -475.000000 720.000000 -300.000000
v  475.000000 720.000000 -300.000000
v  475.000000 720.000000 -300.000000
v  475.000000 720.000000 -300.000000
v  475.000000 720.000000 300.000000
v  475.000000 720.000000 300.000000
v  475.000000 720.000000 300.000000
v  -475.000000 720.000000 300.000000
v  -475.000000 720.000000 300.000000
v  -475.000000 720.000000 300.000000
v  -450.000000 720.000000 -275.000000
v  -450.000000 720.000000 -275.000000
v  -450.000000 720.000000 -275.000000
v  -450.000000 720.000000 275.000000
v  -450.000000 720.000000 275.000000
v  -450.000000 720.000000 275.000000
v  450.000000 720.000000 275.000000
v  450.000000 720.000000 275.000000
v  450.000000 720.000000 275.000000
v  450.000000 720.000000 -275.000000
v  450.000000 720.000000 -275.000000
v  450.000000 720.000000 -275.000000
v  -475.000000 695.000000 275.000000
v  -475.000000 695.000000 275.000000
v  -475.000000 695.000000 275.000000
v  -475.000000 695.000000 -275.000000
v  -475.000000 695.000000 -275.000000
v  -475.000000 695.000000 -275.000000
v  -475.000000 25.000000 -275.000000
v  -475.000000 25.000000 -275.000000
v  -475.000000 25.000000 -275.000000
v  -475.000000 25.000000 275.000000
v  -475.000000 25.000000 275.000000
v  -475.000000 25.000000 275.000000
v  -450.000000 695.000000 300.000000
v  -450.000000 695.000000 300.000000
v  -450.000000 695.000000 300.000000
v  -450.000000 25.000000 300.000000
v  -450.000000 25.000000 300.000000
v  -450.000000 25.000000 300.000000
v  450.000000 25.000000 300.000000
v  450.000000 25.000000 300.000000
v  450.000000 25.000000 300.000000
v  450.000000 695.000000 300.000000
v  450.000000 695.000000 300.000000
v  450.000000 695.000000 300.000000
v  475.000000 695.000000 275.000000
v  475.000000 695.000000 275.000000
v  475.000000 695.000000 275.000000
v  475.000000 25.000000 275.000000
v  475.000000 25.000000 275.000000
v  475.000000 25.000000 275.000000
v  475.000000 25.000000 -275.000000
v  475.000000 25.000000 -275.000000
v  475.000000 25.000000 -275.000000
v  475.000000 695.000000 -275.000000
v  475.000000 695.000000 -275.000000
v  475.000000 695.000000 -275.000000
v  -450.000000 695.000000 -300.000000
v  -450.000000 695.000000 -300.000000
v  -450.000000 695.000000 -300.000000
v  450.000000 695.000000 -300.000000
v  450.000000 695.000000 -300.000000
v  450.000000 695.000000 -300.000000
v  450.000000 25.000000 -300.000000
v  450.000000 25.000000 -300.000000
v  450.000000 25.000000 -300.000000
v  -450.000000 25.000000 -300.000000
v  -450.000000 25.000000 -300.000000
v  -450.000000 25.000000 -300.000000
v  -450.000000 695.000000 275.000000
v  -450.000000 695.000000 275.000000
v  -450.000000 695.000000 275.000000
v  -450.000000 695.000000 275.000000
v  -450.000000 695.000000 275.000000
v  -450.000000 695.000000 275.000000
v  -450.000000 25.000000 275.000000
v  -450.000000 25.000000 275.000000
v  -450.000000 25.000000 275.000000
v  -450.000000 25.000000 275.000000
v  -450.000000 25.000000 275.000000
v  -450.000000 25.000000 275.000000
v  -450.000000 25.000000 -275.000000
v  -450.000000 25.000000 -275.000000
v  -450.000000 25.000000 -275.000000
v  -450.000000 25.000000 -275.000000
v  -450.000000 25.000000 -275.000000
v  -450.000000 25.000000 -275.000000
v  -450.000000 695.000000 -275.000000
v  -450.000000 695.000000 -275.000000
v  -450.000000 695.000000 -275.000000
v  -450.000000 695.000000 -275.000000
v  -450.000000 695.000000 -275.000000
v  -450.000000 695.000000 -275.000000
v  450.000000 25.000000 275.000000
v  450.000000 25.000000 275.000000
v  450.000000 25.000000 275.000000
v  450.000000 25.000000 275.000000
v  450.000000 25.000000 275.000000
v  450.000000 25.000000 275.000000
v  450.000000 25.000000 -275.000000
v  450.000000 25.000000 -275.000000
v  450.000000 25.000000 -275.000000
v  450.000000 25.000000 -275.000000
v  450.000000 25.000000 -275.000000
v  450.000000 25.000000 -275.000000
v  450.000000 695.000000 275.000000
v  450.000000 695.000000 275.000000
v  450.000000 695.000000 275.000000
v  450.000000 695.000000 275.000000
v  450.000000 695.000000 275.000000
v  450.000000 695.000000 275.000000
v  450.000000 695.000000 -275.000000
v  450.000000 695.000000 -275.000000
v  450.000000 695.000000 -275.000000
v  450.000000 695.000000 -275.000000
v  450.000000 695.000000 -275.000000
v  450.000000 695.000000 -275.000000

vt  1.000000 0.020412 0.000000
vt  1.000000 0.020412 0.000000
vt  1.000000 0.020412 0.000000
vt  1.000000 0.979588 0.000000
vt  1.000000 0.979588 0.000000
vt  1.000000 0.979588 0.000000
vt  0.000000 0.979588 0.000000
vt  0.000000 0.979588 0.000000
vt  0.000000 0.979588 0.000000
vt  0.000000 0.020412 0.000000
vt  0.000000 0.020412 0.000000
vt  0.000000 0.020412 0.000000
vt  1.000000 0.032984 0.000000
vt  1.000000 0.032984 0.000000
vt  1.000000 0.032984 0.000000
vt  0.000000 0.032984 0.000000
vt  0.000000 0.032984 0.000000
vt  0.000000 0.032984 0.000000
vt  0.000000 0.967016 0.000000
vt  0.000000 0.967016 0.000000
vt  0.000000 0.967016 0.000000
vt  1.000000 0.967016 0.000000
vt  1.000000 0.967016 0.000000
vt  1.000000 0.967016 0.000000
vt  0.685632 0.215038 0.000000
vt  0.685632 0.215038 0.000000
vt  0.685632 0.215038 0.000000
vt  0.314368 0.215038 0.000000
vt  0.314368 0.215038 0.000000
vt  0.314368 0.215038 0.000000
vt  0.314368 0.784962 0.000000
vt  0.314368 0.784962 0.000000
vt  0.314368 0.784962 0.000000
vt  0.685632 0.784962 0.000000
vt  0.685632 0.784962 0.000000
vt  0.685632 0.784962 0.000000
vt  0.677808 0.233330 0.000000
vt  0.677808 0.233330 0.000000
vt  0.677808 0.233330 0.000000
vt  0.677808 0.766670 0.000000
vt  0.677808 0.766670 0.000000
vt  0.677808 0.766670 0.000000
vt  0.322192 0.766670 0.000000
vt  0.322192 0.766670 0.000000
vt  0.322192 0.766670 0.000000
vt  0.322192 0.233330 0.000000
vt  0.322192 0.233330 0.000000
vt  0.322192 0.233330 0.000000
vt  0.690838 0.768816 0.000000
vt  0.690838 0.768816 0.000000
vt  0.690838 0.768816 0.000000
vt  0.690838 0.231184 0.000000
vt  0.690838 0.231184 0.000000
vt  0.690838 0.231184 0.000000
vt  0.983262 0.053717 0.000000
vt  0.983262 0.053717 0.000000
vt  0.983262 0.053717 0.000000
vt  0.983262 0.946283 0.000000
vt  0.983262 0.946283 0.000000
vt  0.983262 0.946283 0.000000
vt  0.682902 0.795952 0.000000
vt  0.682902 0.795952 0.000000
vt  0.682902 0.795952 0.000000
vt  0.982334 1.000000 0.000000
vt  0.982334 1.000000 0.000000
vt  0.982334 1.000000 0.000000
vt  0.017666 1.000000 0.000000
vt  0.017666 1.000000 0.000000
vt  0.017666 1.000000 0.000000
vt  0.317098 0.795952 0.000000
vt  0.317098 0.795952 0.000000
vt  0.317098 0.795952 0.000000
vt  0.309162 0.768816 0.000000
vt  0.309162 0.768816 0.000000
vt  0.309162 0.768816 0.000000
vt  0.016738 0.946283 0.000000
vt  0.016738 0.946283 0.000000
vt  0.016738 0.946283 0.000000
vt  0.016738 0.053717 0.000000
vt  0.016738 0.053717 0.000000
vt  0.016738 0.053717 0.000000
vt  0.309162 0.231184 0.000000
vt  0.309162 0.231184 0.000000
vt  0.309162 0.231184 0.000000
vt  0.682902 0.204048 0.000000
vt  0.682902 0.204048 0.000000
vt  0.682902 0.204048 0.000000
vt  0.317098 0.204048 0.000000
vt  0.317098 0.204048 0.000000
vt  0.317098 0.204048 0.000000
vt  0.017666 0.000000 0.000000
vt  0.017666 0.000000 0.000000
vt  0.017666 0.000000 0.000000
vt  0.982334 0.000000 0.000000
vt  0.982334 0.000000 0.000000
vt  0.982334 0.000000 0.000000
vt  0.682902 0.773013 0.000000
vt  0.682902 0.773013 0.000000
vt  0.682902 0.773013 0.000000
vt  0.682902 0.773013 0.000000
vt  0.682902 0.773013 0.000000
vt  0.682902 0.773013 0.000000
vt  0.982334 0.966433 0.000000
vt  0.982334 0.966433 0.000000
vt  0.982334 0.966433 0.000000
vt  0.982334 0.966433 0.000000
vt  0.982334 0.966433 0.000000
vt  0.982334 0.966433 0.000000
vt  0.982334 0.033567 0.000000
vt  0.982334 0.033567 0.000000
vt  0.982334 0.033567 0.000000
vt  0.982334 0.033567 0.000000
vt  0.982334 0.033567 0.000000
vt  0.982334 0.033567 0.000000
vt  0.682902 0.226987 0.000000
vt  0.682902 0.226987 0.000000
vt  0.682902 0.226987 0.000000
vt  0.682902 0.226987 0.000000
vt  0.682902 0.226987 0.000000
vt  0.682902 0.226987 0.000000
vt  0.017666 0.966433 0.000000
vt  0.017666 0.966433 0.000000
vt  0.017666 0.966433 0.000000
vt  0.017666 0.966433 0.000000
vt  0.017666 0.966433 0.000000
vt  0.017666 0.966433 0.000000
vt  0.017666 0.033567 0.000000
vt  0.017666 0.033567 0.000000
vt  0.017666 0.033567 0.000000
vt  0.017666 0.033567 0.000000
vt  0.017666 0.033567 0.000000
vt  0.017666 0.033567 0.000000
vt  0.317098 0.773013 0.000000
vt  0.317098 0.773013 0.000000
vt  0.317098 0.773013 0.000000
vt  0.317098 0.773013 0.000000
vt  0.317098 0.773013 0.000000
vt  0.317098 0.773013 0.000000
vt  0.317098 0.226987 0.000000
vt  0.317098 0.226987 0.000000
vt  0.317098 0.226987 0.000000
vt  0.317098 0.226987 0.000000
vt  0.317098 0.226987 0.000000
vt  0.317098 0.226987 0.000000

vn  0.000000 -1.000000 0.000000
vn  -1.000000 0.000000 0.000000
vn  0.000000 0.000000 -1.000000
vn  0.000000 -1.000000 0.000000
vn  -1.000000 0.000000 0.000000
vn  0.000000 0.000000 1.000000
vn  0.000000 -1.000000 0.000000
vn  0.000000 0.000000 1.000000
vn  1.000000 0.000000 0.000000
vn  0.000000 -1.000000 0.000000
vn  1.000000 0.000000 0.000000
vn  0.000000 0.000000 -1.000000
vn  0.000000 -1.000000 0.000000
vn  1.000000 0.000000 0.000000
vn  0.000000 0.000000 1.000000
vn  0.000000 -1.000000 0.000000
vn  -1.000000 0.000000 0.000000
vn  0.000000 0.000000 1.000000
vn  0.000000 -1.000000 0.000000
vn  -1.000000 0.000000 0.000000
vn  0.000000 0.000000 -1.000000
vn  0.000000 -1.000000 0.000000
vn  1.000000 0.000000 0.000000
vn  0.000000 0.000000 -1.000000
vn  0.000000 1.000000 0.000000
vn  -1.000000 0.000000 0.000000
vn  0.000000 0.000000 -1.000000
vn  0.000000 1.000000 0.000000
vn  1.000000 0.000000 0.000000
vn  0.000000 0.000000 -1.000000
vn  0.000000 1.000000 0.000000
vn  0.000000 0.000000 1.000000
vn  1.000000 0.000000 0.000000
vn  0.000000 1.000000 0.000000
vn  -1.000000 0.000000 0.000000
vn  0.000000 0.000000 1.000000
vn  0.000000 1.000000 0.000000
vn  1.000000 0.000000 0.000000
vn  0.000000 0.000000 1.000000
vn  0.000000 1.000000 0.000000
vn  1.000000 0.000000 0.000000
vn  0.000000 0.000000 -1.000000
vn  0.000000 1.000000 0.000000
vn  -1.000000 0.000000 0.000000
vn  0.000000 0.000000 -1.000000
vn  0.000000 1.000000 0.000000
vn  -1.000000 0.000000 0.000000
vn  0.000000 0.000000 1.000000
vn  -1.000000 0.000000 0.000000
vn  0.000000 0.000000 -1.000000
vn  0.000000 -1.000000 0.000000
vn  -1.000000 0.000000 0.000000
vn  0.000000 0.000000 1.000000
vn  0.000000 -1.000000 0.000000
vn  -1.000000 0.000000 0.000000
vn  0.000000 1.000000 0.000000
vn  0.000000 0.000000 1.000000
vn  -1.000000 0.000000 0.000000
vn  0.000000 0.000000 -1.000000
vn  0.000000 1.000000 0.000000
vn  0.000000 0.000000 1.000000
vn  1.000000 0.000000 0.000000
vn  0.000000 -1.000000 0.000000
vn  0.000000 0.000000 1.000000
vn  1.000000 0.000000 0.000000
vn  0.000000 1.000000 0.000000
vn  0.000000 0.000000 1.000000
vn  0.000000 1.000000 0.000000
vn  -1.000000 0.000000 0.000000
vn  0.000000 0.000000 1.000000
vn  -1.000000 0.000000 0.000000
vn  0.000000 -1.000000 0.000000
vn  1.000000 0.000000 0.000000
vn  0.000000 0.000000 -1.000000
vn  0.000000 -1.000000 0.000000
vn  1.000000 0.000000 0.000000
vn  0.000000 0.000000 -1.000000
vn  0.000000 1.000000 0.000000
vn  1.000000 0.000000 0.000000
vn  0.000000 1.000000 0.000000
vn  0.000000 0.000000 1.000000
vn  1.000000 0.000000 0.000000
vn  0.000000 0.000000 1.000000
vn  0.000000 -1.000000 0.000000
vn  0.000000 0.000000 -1.000000
vn  1.000000 0.000000 0.000000
vn  0.000000 -1.000000 0.000000
vn  0.000000 0.000000 -1.000000
vn  -1.000000 0.000000 0.000000
vn  0.000000 -1.000000 0.000000
vn  0.000000 0.000000 -1.000000
vn  0.000000 1.000000 0.000000
vn  -1.000000 0.000000 0.000000
vn  0.000000 0.000000 -1.000000
vn  1.000000 0.000000 0.000000
vn  0.000000 1.000000 0.000000
vn  1.000000 0.000000 0.000000
vn  1.000000 0.000000 0.000000
vn  0.000000 -1.000000 0.000000
vn  0.000000 0.000000 -1.000000
vn  0.000000 0.000000 -1.000000
vn  0.000000 -1.000000 0.000000
vn  1.000000 0.000000 0.000000
vn  1.000000 0.000000 0.000000
vn  0.000000 1.000000 0.000000
vn  0.000000 0.000000 -1.000000
vn  0.000000 0.000000 -1.000000
vn  0.000000 1.000000 0.000000
vn  1.000000 0.000000 0.000000
vn  1.000000 0.000000 0.000000
vn  0.000000 1.000000 0.000000
vn  0.000000 0.000000 1.000000
vn  0.000000 1.000000 0.000000
vn  0.000000 0.000000 1.000000
vn  1.000000 0.000000 0.000000
vn  1.000000 0.000000 0.000000
vn  0.000000 -1.000000 0.000000
vn  0.000000 0.000000 1.000000
vn  0.000000 0.000000 1.000000
vn  0.000000 -1.000000 0.000000
vn  0.000000 1.000000 0.000000
vn  -1.000000 0.000000 0.000000
vn  -1.000000 0.000000 0.000000
vn  0.000000 0.000000 -1.000000
vn  0.000000 0.000000 -1.000000
vn  0.000000 1.000000 0.000000
vn  0.000000 1.000000 0.000000
vn  -1.000000 0.000000 0.000000
vn  -1.000000 0.000000 0.000000
vn  0.000000 0.000000 1.000000
vn  0.000000 1.000000 0.000000
vn  0.000000 0.000000 1.000000
vn  -1.000000 0.000000 0.000000
vn  -1.000000 0.000000 0.000000
vn  0.000000 -1.000000 0.000000
vn  0.000000 0.000000 -1.000000
vn  0.000000 0.000000 -1.000000
vn  0.000000 -1.000000 0.000000
vn  -1.000000 0.000000 0.000000
vn  -1.000000 0.000000 0.000000
vn  0.000000 -1.000000 0.000000
vn  0.000000 0.000000 1.000000
vn  0.000000 0.000000 1.000000
vn  0.000000 -1.000000 0.000000


g 0
g 1
usemtl DEFAULT_MTL
f 13/13/13  4/4/4  1/1/1
f 58/58/58  2/2/2  5/5/5
f 13/13/13  1/1/1  10/10/10
f 91/91/91  12/12/12  3/3/3
f 52/52/52  26/26/26  2/2/2
f 85/85/85  3/3/3  27/27/27
f 55/55/55  52/52/52  2/2/2
f 58/58/58  55/55/55  2/2/2
f 94/94/94  3/3/3  85/85/85
f 94/94/94  91/91/91  3/3/3
f 19/19/19  7/7/7  4/4/4
f 64/64/64  6/6/6  8/8/8
f 22/22/22  4/4/4  13/13/13
f 22/22/22  19/19/19  4/4/4
f 58/58/58  5/5/5  35/35/35
f 64/64/64  36/36/36  6/6/6
f 19/19/19  10/10/10  7/7/7
f 79/79/79  9/9/9  11/11/11
f 70/70/70  8/8/8  32/32/32
f 73/73/73  33/33/33  9/9/9
f 67/67/67  64/64/64  8/8/8
f 70/70/70  67/67/67  8/8/8
f 76/76/76  73/73/73  9/9/9
f 79/79/79  76/76/76  9/9/9
f 16/16/16  13/13/13  10/10/10
f 19/19/19  16/16/16  10/10/10
f 79/79/79  11/11/11  29/29/29
f 91/91/91  30/30/30  12/12/12
f 112/112/112  15/15/15  18/18/18
f 109/109/109  23/23/23  14/14/14
f 122/122/122  17/17/17  20/20/20
f 130/130/130  112/112/112  18/18/18
f 128/128/128  17/17/17  122/122/122
f 124/124/124  21/21/21  24/24/24
f 109/109/109  103/103/103  23/23/23
f 124/124/124  24/24/24  106/106/106
f 46/46/46  28/28/28  25/25/25
f 85/85/85  27/27/27  30/30/30
f 40/40/40  25/25/25  34/34/34
f 52/52/52  35/35/35  26/26/26
f 40/40/40  37/37/37  25/25/25
f 46/46/46  25/25/25  37/37/37
f 46/46/46  31/31/31  28/28/28
f 73/73/73  29/29/29  33/33/33
f 82/82/82  29/29/29  73/73/73
f 82/82/82  79/79/79  29/29/29
f 88/88/88  85/85/85  30/30/30
f 91/91/91  88/88/88  30/30/30
f 40/40/40  34/34/34  31/31/31
f 70/70/70  32/32/32  36/36/36
f 43/43/43  40/40/40  31/31/31
f 46/46/46  43/43/43  31/31/31
f 52/52/52  49/49/49  35/35/35
f 58/58/58  35/35/35  49/49/49
f 64/64/64  61/61/61  36/36/36
f 70/70/70  36/36/36  61/61/61
f 97/97/97  38/38/38  41/41/41
f 142/142/142  48/48/48  39/39/39
f 115/115/115  38/38/38  97/97/97
f 142/142/142  39/39/39  118/118/118
f 100/100/100  42/42/42  45/45/45
f 139/139/139  44/44/44  47/47/47
f 136/136/136  100/100/100  45/45/45
f 139/139/139  133/133/133  44/44/44
f 120/120/120  51/51/51  54/54/54
f 101/101/101  59/59/59  50/50/50
f 120/120/120  102/102/102  51/51/51
f 114/114/114  53/53/53  57/57/57
f 119/119/119  53/53/53  114/114/114
f 108/108/108  56/56/56  60/60/60
f 113/113/113  56/56/56  108/108/108
f 107/107/107  59/59/59  101/101/101
f 97/97/97  62/62/62  65/65/65
f 135/135/135  72/72/72  63/63/63
f 135/135/135  63/63/63  99/99/99
f 105/105/105  66/66/66  68/68/68
f 103/103/103  97/97/97  65/65/65
f 122/122/122  69/69/69  71/71/71
f 121/121/121  105/105/105  68/68/68
f 133/133/133  122/122/122  71/71/71
f 125/125/125  74/74/74  77/77/77
f 138/138/138  84/84/84  75/75/75
f 137/137/137  74/74/74  125/125/125
f 131/131/131  78/78/78  80/80/80
f 131/131/131  126/126/126  78/78/78
f 143/143/143  81/81/81  83/83/83
f 143/143/143  132/132/132  81/81/81
f 144/144/144  84/84/84  138/138/138
f 117/117/117  87/87/87  90/90/90
f 109/109/109  95/95/95  86/86/86
f 115/115/115  109/109/109  86/86/86
f 139/139/139  89/89/89  93/93/93
f 141/141/141  117/117/117  90/90/90
f 127/127/127  92/92/92  96/96/96
f 139/139/139  93/93/93  128/128/128
f 127/127/127  96/96/96  111/111/111
