mtllib hole_1.mtl

v  5.000000 0.000000 0.000000
v  5.000000 0.000000 0.000000
v  5.000000 0.000000 0.000000
v  4.949089 0.000000 -0.711699
v  4.949089 0.000000 -0.711699
v  4.797406 0.000000 -1.408842
v  4.797406 0.000000 -1.408842
v  4.548049 0.000000 -2.077287
v  4.548049 0.000000 -2.077287
v  4.206107 0.000000 -2.703415
v  4.206107 0.000000 -2.703415
v  3.778551 0.000000 -3.274487
v  3.778551 0.000000 -3.274487
v  3.274089 0.000000 -3.778885
v  3.274089 0.000000 -3.778885
v  2.702995 0.000000 -4.206350
v  2.702995 0.000000 -4.206350
v  2.076894 0.000000 -4.548188
v  2.076894 0.000000 -4.548188
v  1.408529 0.000000 -4.797447
v  1.408529 0.000000 -4.797447
v  0.711504 0.000000 -4.949059
v  0.711504 0.000000 -4.949059
v  0.000000 0.000000 -4.999941
v  0.000000 0.000000 -4.999941
v  -0.711504 0.000000 -4.949059
v  -0.711504 0.000000 -4.949059
v  -1.408529 0.000000 -4.797447
v  -1.408529 0.000000 -4.797447
v  -2.076894 0.000000 -4.548188
v  -2.076894 0.000000 -4.548188
v  -2.702995 0.000000 -4.206350
v  -2.702995 0.000000 -4.206350
v  -3.274089 0.000000 -3.778885
v  -3.274089 0.000000 -3.778885
v  -3.778551 0.000000 -3.274487
v  -3.778551 0.000000 -3.274487
v  -4.206107 0.000000 -2.703415
v  -4.206107 0.000000 -2.703415
v  -4.548049 0.000000 -2.077287
v  -4.548049 0.000000 -2.077287
v  -4.797406 0.000000 -1.408842
v  -4.797406 0.000000 -1.408842
v  -4.949089 0.000000 -0.711699
v  -4.949089 0.000000 -0.711699
v  -5.000000 0.000000 -0.000000
v  -5.000000 0.000000 -0.000000
v  -5.000000 0.000000 -0.000000
v  -4.949089 0.000000 0.711699
v  -4.949089 0.000000 0.711699
v  -4.797406 0.000000 1.408842
v  -4.797406 0.000000 1.408842
v  -4.548049 0.000000 2.077287
v  -4.548049 0.000000 2.077287
v  -4.206107 0.000000 2.703415
v  -4.206107 0.000000 2.703415
v  -3.778551 0.000000 3.274487
v  -3.778551 0.000000 3.274487
v  -3.274089 0.000000 3.778885
v  -3.274089 0.000000 3.778885
v  -2.702995 0.000000 4.206350
v  -2.702995 0.000000 4.206350
v  -2.076894 0.000000 4.548188
v  -2.076894 0.000000 4.548188
v  -1.408529 0.000000 4.797447
v  -1.408529 0.000000 4.797447
v  -0.711504 0.000000 4.949059
v  -0.711504 0.000000 4.949059
v  -0.000000 0.000000 4.999941
v  -0.000000 0.000000 4.999941
v  0.711504 0.000000 4.949059
v  0.711504 0.000000 4.949059
v  1.408529 0.000000 4.797447
v  1.408529 0.000000 4.797447
v  2.076894 0.000000 4.548188
v  2.076894 0.000000 4.548188
v  2.702995 0.000000 4.206350
v  2.702995 0.000000 4.206350
v  3.274089 0.000000 3.778885
v  3.274089 0.000000 3.778885
v  3.778551 0.000000 3.274487
v  3.778551 0.000000 3.274487
v  4.206107 0.000000 2.703415
v  4.206107 0.000000 2.703415
v  4.548049 0.000000 2.077287
v  4.548049 0.000000 2.077287
v  4.797406 0.000000 1.408842
v  4.797406 0.000000 1.408842
v  4.949089 0.000000 0.711699
v  4.949089 0.000000 0.711699
v  5.000000 130.000000 0.000000
v  5.000000 130.000000 0.000000
v  5.000000 130.000000 0.000000
v  4.949089 130.000000 0.711699
v  4.949089 130.000000 0.711699
v  4.797406 130.000000 1.408842
v  4.797406 130.000000 1.408842
v  4.548049 130.000000 2.077287
v  4.548049 130.000000 2.077287
v  4.206107 130.000000 2.703415
v  4.206107 130.000000 2.703415
v  3.778551 130.000000 3.274487
v  3.778551 130.000000 3.274487
v  3.274089 130.000000 3.778885
v  3.274089 130.000000 3.778885
v  2.702995 130.000000 4.206350
v  2.702995 130.000000 4.206350
v  2.076894 130.000000 4.548188
v  2.076894 130.000000 4.548188
v  1.408529 130.000000 4.797447
v  1.408529 130.000000 4.797447
v  0.711504 130.000000 4.949059
v  0.711504 130.000000 4.949059
v  -0.000000 130.000000 4.999941
v  -0.000000 130.000000 4.999941
v  -0.711504 130.000000 4.949059
v  -0.711504 130.000000 4.949059
v  -1.408529 130.000000 4.797447
v  -1.408529 130.000000 4.797447
v  -2.076894 130.000000 4.548188
v  -2.076894 130.000000 4.548188
v  -2.702995 130.000000 4.206350
v  -2.702995 130.000000 4.206350
v  -3.274089 130.000000 3.778885
v  -3.274089 130.000000 3.778885
v  -3.778551 130.000000 3.274487
v  -3.778551 130.000000 3.274487
v  -4.206107 130.000000 2.703415
v  -4.206107 130.000000 2.703415
v  -4.548049 130.000000 2.077287
v  -4.548049 130.000000 2.077287
v  -4.797406 130.000000 1.408842
v  -4.797406 130.000000 1.408842
v  -4.949089 130.000000 0.711699
v  -4.949089 130.000000 0.711699
v  -5.000000 130.000000 -0.000000
v  -5.000000 130.000000 -0.000000
v  -5.000000 130.000000 -0.000000
v  -4.949089 130.000000 -0.711699
v  -4.949089 130.000000 -0.711699
v  -4.797406 130.000000 -1.408842
v  -4.797406 130.000000 -1.408842
v  -4.548049 130.000000 -2.077287
v  -4.548049 130.000000 -2.077287
v  -4.206107 130.000000 -2.703415
v  -4.206107 130.000000 -2.703415
v  -3.778551 130.000000 -3.274487
v  -3.778551 130.000000 -3.274487
v  -3.274089 130.000000 -3.778885
v  -3.274089 130.000000 -3.778885
v  -2.702995 130.000000 -4.206350
v  -2.702995 130.000000 -4.206350
v  -2.076894 130.000000 -4.548188
v  -2.076894 130.000000 -4.548188
v  -1.408529 130.000000 -4.797447
v  -1.408529 130.000000 -4.797447
v  -0.711504 130.000000 -4.949059
v  -0.711504 130.000000 -4.949059
v  0.000000 130.000000 -4.999941
v  0.000000 130.000000 -4.999941
v  0.711504 130.000000 -4.949059
v  0.711504 130.000000 -4.949059
v  1.408529 130.000000 -4.797447
v  1.408529 130.000000 -4.797447
v  2.076894 130.000000 -4.548188
v  2.076894 130.000000 -4.548188
v  2.702995 130.000000 -4.206350
v  2.702995 130.000000 -4.206350
v  3.274089 130.000000 -3.778885
v  3.274089 130.000000 -3.778885
v  3.778551 130.000000 -3.274487
v  3.778551 130.000000 -3.274487
v  4.206107 130.000000 -2.703415
v  4.206107 130.000000 -2.703415
v  4.548049 130.000000 -2.077287
v  4.548049 130.000000 -2.077287
v  4.797406 130.000000 -1.408842
v  4.797406 130.000000 -1.408842
v  4.949089 130.000000 -0.711699
v  4.949089 130.000000 -0.711699

vt  0.000000 0.500000 0.000000
vt  0.000000 0.500000 0.000000
vt  0.000000 0.500000 0.000000
vt  0.000000 0.454537 0.000000
vt  0.000000 0.454537 0.000000
vt  0.000000 0.409079 0.000000
vt  0.000000 0.409079 0.000000
vt  0.000000 0.363621 0.000000
vt  0.000000 0.363621 0.000000
vt  0.000000 0.318165 0.000000
vt  0.000000 0.318165 0.000000
vt  0.000000 0.272710 0.000000
vt  0.000000 0.272710 0.000000
vt  0.000000 0.227257 0.000000
vt  0.000000 0.227257 0.000000
vt  0.000000 0.181804 0.000000
vt  0.000000 0.181804 0.000000
vt  0.000000 0.136352 0.000000
vt  0.000000 0.136352 0.000000
vt  0.000000 0.090901 0.000000
vt  0.000000 0.090901 0.000000
vt  0.000000 0.045451 0.000000
vt  0.000000 0.045451 0.000000
vt  0.000000 0.000000 0.000000
vt  0.000000 0.000000 0.000000
vt  1.000000 0.045451 0.000000
vt  1.000000 0.045451 0.000000
vt  1.000000 0.090901 0.000000
vt  1.000000 0.090901 0.000000
vt  1.000000 0.136352 0.000000
vt  1.000000 0.136352 0.000000
vt  1.000000 0.181804 0.000000
vt  1.000000 0.181804 0.000000
vt  1.000000 0.227257 0.000000
vt  1.000000 0.227257 0.000000
vt  1.000000 0.272710 0.000000
vt  1.000000 0.272710 0.000000
vt  1.000000 0.318165 0.000000
vt  1.000000 0.318165 0.000000
vt  1.000000 0.363621 0.000000
vt  1.000000 0.363621 0.000000
vt  1.000000 0.409079 0.000000
vt  1.000000 0.409079 0.000000
vt  1.000000 0.454537 0.000000
vt  1.000000 0.454537 0.000000
vt  1.000000 0.500000 0.000000
vt  1.000000 0.500000 0.000000
vt  1.000000 0.500000 0.000000
vt  1.000000 0.545463 0.000000
vt  1.000000 0.545463 0.000000
vt  1.000000 0.590921 0.000000
vt  1.000000 0.590921 0.000000
vt  1.000000 0.636379 0.000000
vt  1.000000 0.636379 0.000000
vt  1.000000 0.681835 0.000000
vt  1.000000 0.681835 0.000000
vt  1.000000 0.727290 0.000000
vt  1.000000 0.727290 0.000000
vt  1.000000 0.772743 0.000000
vt  1.000000 0.772743 0.000000
vt  1.000000 0.818196 0.000000
vt  1.000000 0.818196 0.000000
vt  1.000000 0.863648 0.000000
vt  1.000000 0.863648 0.000000
vt  1.000000 0.909099 0.000000
vt  1.000000 0.909099 0.000000
vt  1.000000 0.954549 0.000000
vt  1.000000 0.954549 0.000000
vt  1.000000 1.000000 0.000000
vt  1.000000 1.000000 0.000000
vt  0.000000 0.954549 0.000000
vt  0.000000 0.954549 0.000000
vt  0.000000 0.909099 0.000000
vt  0.000000 0.909099 0.000000
vt  0.000000 0.863648 0.000000
vt  0.000000 0.863648 0.000000
vt  0.000000 0.818196 0.000000
vt  0.000000 0.818196 0.000000
vt  0.000000 0.772743 0.000000
vt  0.000000 0.772743 0.000000
vt  0.000000 0.727290 0.000000
vt  0.000000 0.727290 0.000000
vt  0.000000 0.681835 0.000000
vt  0.000000 0.681835 0.000000
vt  0.000000 0.636379 0.000000
vt  0.000000 0.636379 0.000000
vt  0.000000 0.590921 0.000000
vt  0.000000 0.590921 0.000000
vt  0.000000 0.545463 0.000000
vt  0.000000 0.545463 0.000000
vt  0.487763 0.500000 0.000000
vt  0.487763 0.500000 0.000000
vt  0.487763 0.500000 0.000000
vt  0.487888 0.501741 0.000000
vt  0.487888 0.501741 0.000000
vt  0.488259 0.503447 0.000000
vt  0.488259 0.503447 0.000000
vt  0.488868 0.505083 0.000000
vt  0.488868 0.505083 0.000000
vt  0.489705 0.506615 0.000000
vt  0.489705 0.506615 0.000000
vt  0.490751 0.508013 0.000000
vt  0.490751 0.508013 0.000000
vt  0.491985 0.509247 0.000000
vt  0.491985 0.509247 0.000000
vt  0.493383 0.510294 0.000000
vt  0.493383 0.510294 0.000000
vt  0.494915 0.511130 0.000000
vt  0.494915 0.511130 0.000000
vt  0.496551 0.511741 0.000000
vt  0.496551 0.511741 0.000000
vt  0.498258 0.512112 0.000000
vt  0.498258 0.512112 0.000000
vt  0.500000 0.512237 0.000000
vt  0.500000 0.512237 0.000000
vt  0.501742 0.512112 0.000000
vt  0.501742 0.512112 0.000000
vt  0.503449 0.511741 0.000000
vt  0.503449 0.511741 0.000000
vt  0.505085 0.511130 0.000000
vt  0.505085 0.511130 0.000000
vt  0.506617 0.510294 0.000000
vt  0.506617 0.510294 0.000000
vt  0.508015 0.509247 0.000000
vt  0.508015 0.509247 0.000000
vt  0.509249 0.508013 0.000000
vt  0.509249 0.508013 0.000000
vt  0.510295 0.506615 0.000000
vt  0.510295 0.506615 0.000000
vt  0.511132 0.505083 0.000000
vt  0.511132 0.505083 0.000000
vt  0.511741 0.503447 0.000000
vt  0.511741 0.503447 0.000000
vt  0.512112 0.501741 0.000000
vt  0.512112 0.501741 0.000000
vt  0.512237 0.500000 0.000000
vt  0.512237 0.500000 0.000000
vt  0.512237 0.500000 0.000000
vt  0.512112 0.498259 0.000000
vt  0.512112 0.498259 0.000000
vt  0.511741 0.496553 0.000000
vt  0.511741 0.496553 0.000000
vt  0.511132 0.494917 0.000000
vt  0.511132 0.494917 0.000000
vt  0.510295 0.493385 0.000000
vt  0.510295 0.493385 0.000000
vt  0.509249 0.491987 0.000000
vt  0.509249 0.491987 0.000000
vt  0.508015 0.490753 0.000000
vt  0.508015 0.490753 0.000000
vt  0.506617 0.489706 0.000000
vt  0.506617 0.489706 0.000000
vt  0.505085 0.488870 0.000000
vt  0.505085 0.488870 0.000000
vt  0.503449 0.488259 0.000000
vt  0.503449 0.488259 0.000000
vt  0.501742 0.487888 0.000000
vt  0.501742 0.487888 0.000000
vt  0.500000 0.487763 0.000000
vt  0.500000 0.487763 0.000000
vt  0.498258 0.487888 0.000000
vt  0.498258 0.487888 0.000000
vt  0.496551 0.488259 0.000000
vt  0.496551 0.488259 0.000000
vt  0.494915 0.488870 0.000000
vt  0.494915 0.488870 0.000000
vt  0.493383 0.489706 0.000000
vt  0.493383 0.489706 0.000000
vt  0.491985 0.490753 0.000000
vt  0.491985 0.490753 0.000000
vt  0.490751 0.491987 0.000000
vt  0.490751 0.491987 0.000000
vt  0.489705 0.493385 0.000000
vt  0.489705 0.493385 0.000000
vt  0.488868 0.494917 0.000000
vt  0.488868 0.494917 0.000000
vt  0.488259 0.496553 0.000000
vt  0.488259 0.496553 0.000000
vt  0.487888 0.498259 0.000000
vt  0.487888 0.498259 0.000000

vn  0.000000 -1.000000 0.000000
vn  1.000000 0.000000 0.000000
vn  1.000000 0.000000 0.000000
vn  0.000000 -1.000000 0.000000
vn  0.989821 0.000000 -0.142315
vn  0.000000 -1.000000 0.000000
vn  0.959493 0.000000 -0.281733
vn  0.000000 -1.000000 0.000000
vn  0.909632 0.000000 -0.415415
vn  0.000000 -1.000000 0.000000
vn  0.841254 0.000000 -0.540641
vn  0.000000 -1.000000 0.000000
vn  0.755750 0.000000 -0.654861
vn  0.000000 -1.000000 0.000000
vn  0.654861 0.000000 -0.755750
vn  0.000000 -1.000000 0.000000
vn  0.540641 0.000000 -0.841254
vn  0.000000 -1.000000 0.000000
vn  0.415415 0.000000 -0.909632
vn  0.000000 -1.000000 0.000000
vn  0.281733 0.000000 -0.959493
vn  0.000000 -1.000000 0.000000
vn  0.142315 0.000000 -0.989821
vn  0.000000 -1.000000 0.000000
vn  0.000000 0.000000 -1.000000
vn  0.000000 -1.000000 0.000000
vn  -0.142315 0.000000 -0.989821
vn  0.000000 -1.000000 0.000000
vn  -0.281733 0.000000 -0.959493
vn  0.000000 -1.000000 0.000000
vn  -0.415415 0.000000 -0.909632
vn  0.000000 -1.000000 0.000000
vn  -0.540641 0.000000 -0.841254
vn  0.000000 -1.000000 0.000000
vn  -0.654861 0.000000 -0.755750
vn  0.000000 -1.000000 0.000000
vn  -0.755750 0.000000 -0.654861
vn  0.000000 -1.000000 0.000000
vn  -0.841254 0.000000 -0.540641
vn  0.000000 -1.000000 0.000000
vn  -0.909632 0.000000 -0.415415
vn  0.000000 -1.000000 0.000000
vn  -0.959493 0.000000 -0.281733
vn  0.000000 -1.000000 0.000000
vn  -0.989821 0.000000 -0.142315
vn  0.000000 -1.000000 0.000000
vn  -1.000000 0.000000 -0.000000
vn  -1.000000 0.000000 -0.000000
vn  0.000000 -1.000000 0.000000
vn  -0.989821 0.000000 0.142315
vn  0.000000 -1.000000 0.000000
vn  -0.959493 0.000000 0.281733
vn  0.000000 -1.000000 0.000000
vn  -0.909632 0.000000 0.415415
vn  0.000000 -1.000000 0.000000
vn  -0.841254 0.000000 0.540641
vn  0.000000 -1.000000 0.000000
vn  -0.755750 0.000000 0.654861
vn  0.000000 -1.000000 0.000000
vn  -0.654861 0.000000 0.755750
vn  0.000000 -1.000000 0.000000
vn  -0.540641 0.000000 0.841254
vn  0.000000 -1.000000 0.000000
vn  -0.415415 0.000000 0.909632
vn  0.000000 -1.000000 0.000000
vn  -0.281733 0.000000 0.959493
vn  0.000000 -1.000000 0.000000
vn  -0.142315 0.000000 0.989821
vn  0.000000 -1.000000 0.000000
vn  -0.000000 0.000000 1.000000
vn  0.000000 -1.000000 0.000000
vn  0.142315 0.000000 0.989821
vn  0.000000 -1.000000 0.000000
vn  0.281733 0.000000 0.959493
vn  0.000000 -1.000000 0.000000
vn  0.415415 0.000000 0.909632
vn  0.000000 -1.000000 0.000000
vn  0.540641 0.000000 0.841254
vn  0.000000 -1.000000 0.000000
vn  0.654861 0.000000 0.755750
vn  0.000000 -1.000000 0.000000
vn  0.755750 0.000000 0.654861
vn  0.000000 -1.000000 0.000000
vn  0.841254 0.000000 0.540641
vn  0.000000 -1.000000 0.000000
vn  0.909632 0.000000 0.415415
vn  0.000000 -1.000000 0.000000
vn  0.959493 0.000000 0.281733
vn  0.000000 -1.000000 0.000000
vn  0.989821 0.000000 0.142315
vn  0.000000 1.000000 0.000000
vn  1.000000 0.000000 0.000000
vn  1.000000 0.000000 0.000000
vn  0.000000 1.000000 0.000000
vn  0.989821 0.000000 0.142315
vn  0.000000 1.000000 0.000000
vn  0.959493 0.000000 0.281733
vn  0.000000 1.000000 0.000000
vn  0.909632 0.000000 0.415415
vn  0.000000 1.000000 0.000000
vn  0.841254 0.000000 0.540641
vn  0.000000 1.000000 0.000000
vn  0.755750 0.000000 0.654861
vn  0.000000 1.000000 0.000000
vn  0.654861 0.000000 0.755750
vn  0.000000 1.000000 0.000000
vn  0.540641 0.000000 0.841254
vn  0.000000 1.000000 0.000000
vn  0.415415 0.000000 0.909632
vn  0.000000 1.000000 0.000000
vn  0.281733 0.000000 0.959493
vn  0.000000 1.000000 0.000000
vn  0.142315 0.000000 0.989821
vn  0.000000 1.000000 0.000000
vn  -0.000000 0.000000 1.000000
vn  0.000000 1.000000 0.000000
vn  -0.142315 0.000000 0.989821
vn  0.000000 1.000000 0.000000
vn  -0.281733 0.000000 0.959493
vn  0.000000 1.000000 0.000000
vn  -0.415415 0.000000 0.909632
vn  0.000000 1.000000 0.000000
vn  -0.540641 0.000000 0.841254
vn  0.000000 1.000000 0.000000
vn  -0.654861 0.000000 0.755750
vn  0.000000 1.000000 0.000000
vn  -0.755750 0.000000 0.654861
vn  0.000000 1.000000 0.000000
vn  -0.841254 0.000000 0.540641
vn  0.000000 1.000000 0.000000
vn  -0.909632 0.000000 0.415415
vn  0.000000 1.000000 0.000000
vn  -0.959493 0.000000 0.281733
vn  0.000000 1.000000 0.000000
vn  -0.989821 0.000000 0.142315
vn  0.000000 1.000000 0.000000
vn  -1.000000 0.000000 -0.000000
vn  -1.000000 0.000000 -0.000000
vn  0.000000 1.000000 0.000000
vn  -0.989821 0.000000 -0.142315
vn  0.000000 1.000000 0.000000
vn  -0.959493 0.000000 -0.281733
vn  0.000000 1.000000 0.000000
vn  -0.909632 0.000000 -0.415415
vn  0.000000 1.000000 0.000000
vn  -0.841254 0.000000 -0.540641
vn  0.000000 1.000000 0.000000
vn  -0.755750 0.000000 -0.654861
vn  0.000000 1.000000 0.000000
vn  -0.654861 0.000000 -0.755750
vn  0.000000 1.000000 0.000000
vn  -0.540641 0.000000 -0.841254
vn  0.000000 1.000000 0.000000
vn  -0.415415 0.000000 -0.909632
vn  0.000000 1.000000 0.000000
vn  -0.281733 0.000000 -0.959493
vn  0.000000 1.000000 0.000000
vn  -0.142315 0.000000 -0.989821
vn  0.000000 1.000000 0.000000
vn  0.000000 0.000000 -1.000000
vn  0.000000 1.000000 0.000000
vn  0.142315 0.000000 -0.989821
vn  0.000000 1.000000 0.000000
vn  0.281733 0.000000 -0.959493
vn  0.000000 1.000000 0.000000
vn  0.415415 0.000000 -0.909632
vn  0.000000 1.000000 0.000000
vn  0.540641 0.000000 -0.841254
vn  0.000000 1.000000 0.000000
vn  0.654861 0.000000 -0.755750
vn  0.000000 1.000000 0.000000
vn  0.755750 0.000000 -0.654861
vn  0.000000 1.000000 0.000000
vn  0.841254 0.000000 -0.540641
vn  0.000000 1.000000 0.000000
vn  0.909632 0.000000 -0.415415
vn  0.000000 1.000000 0.000000
vn  0.959493 0.000000 -0.281733
vn  0.000000 1.000000 0.000000
vn  0.989821 0.000000 -0.142315


g 0
g 1
usemtl DEFAULT_MTL
f 44/44/44  4/4/4  1/1/1
f 92/92/92  2/2/2  5/5/5
f 46/46/46  44/44/44  1/1/1
f 89/89/89  46/46/46  1/1/1
f 95/95/95  90/90/90  3/3/3
f 95/95/95  3/3/3  93/93/93
f 42/42/42  6/6/6  4/4/4
f 180/180/180  5/5/5  7/7/7
f 44/44/44  42/42/42  4/4/4
f 180/180/180  92/92/92  5/5/5
f 40/40/40  8/8/8  6/6/6
f 178/178/178  7/7/7  9/9/9
f 42/42/42  40/40/40  6/6/6
f 180/180/180  7/7/7  178/178/178
f 38/38/38  10/10/10  8/8/8
f 176/176/176  9/9/9  11/11/11
f 40/40/40  38/38/38  8/8/8
f 178/178/178  9/9/9  176/176/176
f 36/36/36  12/12/12  10/10/10
f 174/174/174  11/11/11  13/13/13
f 38/38/38  36/36/36  10/10/10
f 176/176/176  11/11/11  174/174/174
f 34/34/34  14/14/14  12/12/12
f 172/172/172  13/13/13  15/15/15
f 36/36/36  34/34/34  12/12/12
f 174/174/174  13/13/13  172/172/172
f 32/32/32  16/16/16  14/14/14
f 170/170/170  15/15/15  17/17/17
f 34/34/34  32/32/32  14/14/14
f 172/172/172  15/15/15  170/170/170
f 30/30/30  18/18/18  16/16/16
f 168/168/168  17/17/17  19/19/19
f 32/32/32  30/30/30  16/16/16
f 170/170/170  17/17/17  168/168/168
f 28/28/28  20/20/20  18/18/18
f 166/166/166  19/19/19  21/21/21
f 30/30/30  28/28/28  18/18/18
f 168/168/168  19/19/19  166/166/166
f 26/26/26  22/22/22  20/20/20
f 164/164/164  21/21/21  23/23/23
f 28/28/28  26/26/26  20/20/20
f 166/166/166  21/21/21  164/164/164
f 26/26/26  24/24/24  22/22/22
f 162/162/162  23/23/23  25/25/25
f 164/164/164  23/23/23  162/162/162
f 160/160/160  25/25/25  27/27/27
f 162/162/162  25/25/25  160/160/160
f 158/158/158  27/27/27  29/29/29
f 160/160/160  27/27/27  158/158/158
f 156/156/156  29/29/29  31/31/31
f 158/158/158  29/29/29  156/156/156
f 154/154/154  31/31/31  33/33/33
f 156/156/156  31/31/31  154/154/154
f 152/152/152  33/33/33  35/35/35
f 154/154/154  33/33/33  152/152/152
f 150/150/150  35/35/35  37/37/37
f 152/152/152  35/35/35  150/150/150
f 148/148/148  37/37/37  39/39/39
f 150/150/150  37/37/37  148/148/148
f 146/146/146  39/39/39  41/41/41
f 148/148/148  39/39/39  146/146/146
f 144/144/144  41/41/41  43/43/43
f 146/146/146  41/41/41  144/144/144
f 142/142/142  43/43/43  45/45/45
f 144/144/144  43/43/43  142/142/142
f 140/140/140  45/45/45  47/47/47
f 142/142/142  45/45/45  140/140/140
f 89/89/89  49/49/49  46/46/46
f 138/138/138  48/48/48  50/50/50
f 140/140/140  47/47/47  137/137/137
f 87/87/87  51/51/51  49/49/49
f 135/135/135  50/50/50  52/52/52
f 89/89/89  87/87/87  49/49/49
f 138/138/138  50/50/50  135/135/135
f 85/85/85  53/53/53  51/51/51
f 133/133/133  52/52/52  54/54/54
f 87/87/87  85/85/85  51/51/51
f 135/135/135  52/52/52  133/133/133
f 83/83/83  55/55/55  53/53/53
f 131/131/131  54/54/54  56/56/56
f 85/85/85  83/83/83  53/53/53
f 133/133/133  54/54/54  131/131/131
f 81/81/81  57/57/57  55/55/55
f 129/129/129  56/56/56  58/58/58
f 83/83/83  81/81/81  55/55/55
f 131/131/131  56/56/56  129/129/129
f 79/79/79  59/59/59  57/57/57
f 127/127/127  58/58/58  60/60/60
f 81/81/81  79/79/79  57/57/57
f 129/129/129  58/58/58  127/127/127
f 77/77/77  61/61/61  59/59/59
f 125/125/125  60/60/60  62/62/62
f 79/79/79  77/77/77  59/59/59
f 127/127/127  60/60/60  125/125/125
f 75/75/75  63/63/63  61/61/61
f 123/123/123  62/62/62  64/64/64
f 77/77/77  75/75/75  61/61/61
f 125/125/125  62/62/62  123/123/123
f 73/73/73  65/65/65  63/63/63
f 121/121/121  64/64/64  66/66/66
f 75/75/75  73/73/73  63/63/63
f 123/123/123  64/64/64  121/121/121
f 71/71/71  67/67/67  65/65/65
f 119/119/119  66/66/66  68/68/68
f 73/73/73  71/71/71  65/65/65
f 121/121/121  66/66/66  119/119/119
f 71/71/71  69/69/69  67/67/67
f 117/117/117  68/68/68  70/70/70
f 119/119/119  68/68/68  117/117/117
f 115/115/115  70/70/70  72/72/72
f 117/117/117  70/70/70  115/115/115
f 113/113/113  72/72/72  74/74/74
f 115/115/115  72/72/72  113/113/113
f 111/111/111  74/74/74  76/76/76
f 113/113/113  74/74/74  111/111/111
f 109/109/109  76/76/76  78/78/78
f 111/111/111  76/76/76  109/109/109
f 107/107/107  78/78/78  80/80/80
f 109/109/109  78/78/78  107/107/107
f 105/105/105  80/80/80  82/82/82
f 107/107/107  80/80/80  105/105/105
f 103/103/103  82/82/82  84/84/84
f 105/105/105  82/82/82  103/103/103
f 101/101/101  84/84/84  86/86/86
f 103/103/103  84/84/84  101/101/101
f 99/99/99  86/86/86  88/88/88
f 101/101/101  86/86/86  99/99/99
f 97/97/97  88/88/88  90/90/90
f 99/99/99  88/88/88  97/97/97
f 97/97/97  90/90/90  95/95/95
f 134/134/134  94/94/94  91/91/91
f 136/136/136  134/134/134  91/91/91
f 179/179/179  136/136/136  91/91/91
f 132/132/132  96/96/96  94/94/94
f 134/134/134  132/132/132  94/94/94
f 130/130/130  98/98/98  96/96/96
f 132/132/132  130/130/130  96/96/96
f 128/128/128  100/100/100  98/98/98
f 130/130/130  128/128/128  98/98/98
f 126/126/126  102/102/102  100/100/100
f 128/128/128  126/126/126  100/100/100
f 124/124/124  104/104/104  102/102/102
f 126/126/126  124/124/124  102/102/102
f 122/122/122  106/106/106  104/104/104
f 124/124/124  122/122/122  104/104/104
f 120/120/120  108/108/108  106/106/106
f 122/122/122  120/120/120  106/106/106
f 118/118/118  110/110/110  108/108/108
f 120/120/120  118/118/118  108/108/108
f 116/116/116  112/112/112  110/110/110
f 118/118/118  116/116/116  110/110/110
f 116/116/116  114/114/114  112/112/112
f 179/179/179  139/139/139  136/136/136
f 177/177/177  141/141/141  139/139/139
f 179/179/179  177/177/177  139/139/139
f 175/175/175  143/143/143  141/141/141
f 177/177/177  175/175/175  141/141/141
f 173/173/173  145/145/145  143/143/143
f 175/175/175  173/173/173  143/143/143
f 171/171/171  147/147/147  145/145/145
f 173/173/173  171/171/171  145/145/145
f 169/169/169  149/149/149  147/147/147
f 171/171/171  169/169/169  147/147/147
f 167/167/167  151/151/151  149/149/149
f 169/169/169  167/167/167  149/149/149
f 165/165/165  153/153/153  151/151/151
f 167/167/167  165/165/165  151/151/151
f 163/163/163  155/155/155  153/153/153
f 165/165/165  163/163/163  153/153/153
f 161/161/161  157/157/157  155/155/155
f 163/163/163  161/161/161  155/155/155
f 161/161/161  159/159/159  157/157/157
