mtllib move1.mtl

v  0.000000 -10.000000 262.500000
v  0.000000 -10.000000 262.500000
v  0.000000 -10.000000 262.500000
v  0.000000 -10.000000 -262.500000
v  0.000000 -10.000000 -262.500000
v  0.000000 -10.000000 -262.500000
v  0.000000 10.000000 -262.500000
v  0.000000 10.000000 -262.500000
v  0.000000 10.000000 -262.500000
v  0.000000 10.000000 262.500000
v  0.000000 10.000000 262.500000
v  0.000000 10.000000 262.500000
v  20.000000 -10.000000 262.500000
v  20.000000 -10.000000 262.500000
v  20.000000 -10.000000 262.500000
v  20.000000 10.000000 262.500000
v  20.000000 10.000000 262.500000
v  20.000000 10.000000 262.500000
v  20.000000 10.000000 -262.500000
v  20.000000 10.000000 -262.500000
v  20.000000 10.000000 -262.500000
v  20.000000 -10.000000 -262.500000
v  20.000000 -10.000000 -262.500000
v  20.000000 -10.000000 -262.500000
v  35.000000 -25.000000 -262.500000
v  35.000000 -25.000000 -262.500000
v  35.000000 -25.000000 -262.500000
v  -15.000000 -25.000000 -262.500000
v  -15.000000 -25.000000 -262.500000
v  -15.000000 -25.000000 -262.500000
v  -15.000000 25.000000 -262.500000
v  -15.000000 25.000000 -262.500000
v  -15.000000 25.000000 -262.500000
v  35.000000 25.000000 -262.500000
v  35.000000 25.000000 -262.500000
v  35.000000 25.000000 -262.500000
v  35.000000 -25.000000 -312.500000
v  35.000000 -25.000000 -312.500000
v  35.000000 -25.000000 -312.500000
v  35.000000 25.000000 -312.500000
v  35.000000 25.000000 -312.500000
v  35.000000 25.000000 -312.500000
v  -15.000000 25.000000 -312.500000
v  -15.000000 25.000000 -312.500000
v  -15.000000 25.000000 -312.500000
v  -15.000000 -25.000000 -312.500000
v  -15.000000 -25.000000 -312.500000
v  -15.000000 -25.000000 -312.500000
v  22.500000 -25.000000 -275.000000
v  22.500000 -25.000000 -275.000000
v  22.500000 -25.000000 -275.000000
v  -2.500000 -25.000000 -275.000000
v  -2.500000 -25.000000 -275.000000
v  -2.500000 -25.000000 -275.000000
v  -2.500000 -25.000000 -300.000000
v  -2.500000 -25.000000 -300.000000
v  -2.500000 -25.000000 -300.000000
v  22.500000 -25.000000 -300.000000
v  22.500000 -25.000000 -300.000000
v  22.500000 -25.000000 -300.000000
v  22.500000 25.000000 -275.000000
v  22.500000 25.000000 -275.000000
v  22.500000 25.000000 -275.000000
v  22.500000 25.000000 -300.000000
v  22.500000 25.000000 -300.000000
v  22.500000 25.000000 -300.000000
v  -2.500000 25.000000 -300.000000
v  -2.500000 25.000000 -300.000000
v  -2.500000 25.000000 -300.000000
v  -2.500000 25.000000 -275.000000
v  -2.500000 25.000000 -275.000000
v  -2.500000 25.000000 -275.000000
v  35.000000 -25.000000 262.500000
v  35.000000 -25.000000 262.500000
v  35.000000 -25.000000 262.500000
v  35.000000 25.000000 262.500000
v  35.000000 25.000000 262.500000
v  35.000000 25.000000 262.500000
v  -15.000000 25.000000 262.500000
v  -15.000000 25.000000 262.500000
v  -15.000000 25.000000 262.500000
v  -15.000000 -25.000000 262.500000
v  -15.000000 -25.000000 262.500000
v  -15.000000 -25.000000 262.500000
v  35.000000 -25.000000 312.500000
v  35.000000 -25.000000 312.500000
v  35.000000 -25.000000 312.500000
v  -15.000000 -25.000000 312.500000
v  -15.000000 -25.000000 312.500000
v  -15.000000 -25.000000 312.500000
v  -15.000000 25.000000 312.500000
v  -15.000000 25.000000 312.500000
v  -15.000000 25.000000 312.500000
v  35.000000 25.000000 312.500000
v  35.000000 25.000000 312.500000
v  35.000000 25.000000 312.500000
v  22.500000 -25.000000 275.000000
v  22.500000 -25.000000 275.000000
v  22.500000 -25.000000 275.000000
v  22.500000 -25.000000 300.000000
v  22.500000 -25.000000 300.000000
v  22.500000 -25.000000 300.000000
v  -2.500000 -25.000000 300.000000
v  -2.500000 -25.000000 300.000000
v  -2.500000 -25.000000 300.000000
v  -2.500000 -25.000000 275.000000
v  -2.500000 -25.000000 275.000000
v  -2.500000 -25.000000 275.000000
v  22.500000 25.000000 275.000000
v  22.500000 25.000000 275.000000
v  22.500000 25.000000 275.000000
v  -2.500000 25.000000 275.000000
v  -2.500000 25.000000 275.000000
v  -2.500000 25.000000 275.000000
v  -2.500000 25.000000 300.000000
v  -2.500000 25.000000 300.000000
v  -2.500000 25.000000 300.000000
v  22.500000 25.000000 300.000000
v  22.500000 25.000000 300.000000
v  22.500000 25.000000 300.000000

vt  0.127988 1.000000 0.000000
vt  0.127988 1.000000 0.000000
vt  0.127988 1.000000 0.000000
vt  0.127988 0.000000 0.000000
vt  0.127988 0.000000 0.000000
vt  0.127988 0.000000 0.000000
vt  0.872012 0.000000 0.000000
vt  0.872012 0.000000 0.000000
vt  0.872012 0.000000 0.000000
vt  0.872012 1.000000 0.000000
vt  0.872012 1.000000 0.000000
vt  0.872012 1.000000 0.000000
vt  0.390194 0.984700 0.000000
vt  0.390194 0.984700 0.000000
vt  0.390194 0.984700 0.000000
vt  0.609806 0.984700 0.000000
vt  0.609806 0.984700 0.000000
vt  0.609806 0.984700 0.000000
vt  0.609806 0.015300 0.000000
vt  0.609806 0.015300 0.000000
vt  0.609806 0.015300 0.000000
vt  0.390194 0.015300 0.000000
vt  0.390194 0.015300 0.000000
vt  0.390194 0.015300 0.000000
vt  0.353106 0.040560 0.000000
vt  0.353106 0.040560 0.000000
vt  0.353106 0.040560 0.000000
vt  0.000000 0.023662 0.000000
vt  0.000000 0.023662 0.000000
vt  0.000000 0.023662 0.000000
vt  1.000000 0.023662 0.000000
vt  1.000000 0.023662 0.000000
vt  1.000000 0.023662 0.000000
vt  0.646894 0.040560 0.000000
vt  0.646894 0.040560 0.000000
vt  0.646894 0.040560 0.000000
vt  0.353106 0.032198 0.000000
vt  0.353106 0.032198 0.000000
vt  0.353106 0.032198 0.000000
vt  0.646894 0.032198 0.000000
vt  0.646894 0.032198 0.000000
vt  0.646894 0.032198 0.000000
vt  1.000000 0.017925 0.000000
vt  1.000000 0.017925 0.000000
vt  1.000000 0.017925 0.000000
vt  0.000000 0.017925 0.000000
vt  0.000000 0.017925 0.000000
vt  0.000000 0.017925 0.000000
vt  0.301541 0.027280 0.000000
vt  0.301541 0.027280 0.000000
vt  0.301541 0.027280 0.000000
vt  0.104383 0.017300 0.000000
vt  0.104383 0.017300 0.000000
vt  0.104383 0.017300 0.000000
vt  0.104383 0.014835 0.000000
vt  0.104383 0.014835 0.000000
vt  0.104383 0.014835 0.000000
vt  0.301541 0.024000 0.000000
vt  0.301541 0.024000 0.000000
vt  0.301541 0.024000 0.000000
vt  0.698459 0.027280 0.000000
vt  0.698459 0.027280 0.000000
vt  0.698459 0.027280 0.000000
vt  0.698459 0.024000 0.000000
vt  0.698459 0.024000 0.000000
vt  0.698459 0.024000 0.000000
vt  0.895617 0.014835 0.000000
vt  0.895617 0.014835 0.000000
vt  0.895617 0.014835 0.000000
vt  0.895617 0.017300 0.000000
vt  0.895617 0.017300 0.000000
vt  0.895617 0.017300 0.000000
vt  0.353106 0.959440 0.000000
vt  0.353106 0.959440 0.000000
vt  0.353106 0.959440 0.000000
vt  0.646894 0.959440 0.000000
vt  0.646894 0.959440 0.000000
vt  0.646894 0.959440 0.000000
vt  1.000000 0.976338 0.000000
vt  1.000000 0.976338 0.000000
vt  1.000000 0.976338 0.000000
vt  0.000000 0.976338 0.000000
vt  0.000000 0.976338 0.000000
vt  0.000000 0.976338 0.000000
vt  0.353106 0.967802 0.000000
vt  0.353106 0.967802 0.000000
vt  0.353106 0.967802 0.000000
vt  0.000000 0.982075 0.000000
vt  0.000000 0.982075 0.000000
vt  0.000000 0.982075 0.000000
vt  1.000000 0.982075 0.000000
vt  1.000000 0.982075 0.000000
vt  1.000000 0.982075 0.000000
vt  0.646894 0.967802 0.000000
vt  0.646894 0.967802 0.000000
vt  0.646894 0.967802 0.000000
vt  0.301541 0.972720 0.000000
vt  0.301541 0.972720 0.000000
vt  0.301541 0.972720 0.000000
vt  0.301541 0.976000 0.000000
vt  0.301541 0.976000 0.000000
vt  0.301541 0.976000 0.000000
vt  0.104383 0.985165 0.000000
vt  0.104383 0.985165 0.000000
vt  0.104383 0.985165 0.000000
vt  0.104383 0.982700 0.000000
vt  0.104383 0.982700 0.000000
vt  0.104383 0.982700 0.000000
vt  0.698459 0.972720 0.000000
vt  0.698459 0.972720 0.000000
vt  0.698459 0.972720 0.000000
vt  0.895617 0.982700 0.000000
vt  0.895617 0.982700 0.000000
vt  0.895617 0.982700 0.000000
vt  0.895617 0.985165 0.000000
vt  0.895617 0.985165 0.000000
vt  0.895617 0.985165 0.000000
vt  0.698459 0.976000 0.000000
vt  0.698459 0.976000 0.000000
vt  0.698459 0.976000 0.000000

vn  -1.000000 0.000000 0.000000
vn  0.000000 -1.000000 0.000000
vn  0.000000 0.000000 -1.000000
vn  -1.000000 0.000000 0.000000
vn  0.000000 -1.000000 0.000000
vn  0.000000 0.000000 1.000000
vn  -1.000000 0.000000 0.000000
vn  0.000000 1.000000 0.000000
vn  0.000000 0.000000 1.000000
vn  -1.000000 0.000000 0.000000
vn  0.000000 1.000000 0.000000
vn  0.000000 0.000000 -1.000000
vn  1.000000 0.000000 0.000000
vn  0.000000 -1.000000 0.000000
vn  0.000000 0.000000 -1.000000
vn  1.000000 0.000000 0.000000
vn  0.000000 1.000000 0.000000
vn  0.000000 0.000000 -1.000000
vn  1.000000 0.000000 0.000000
vn  0.000000 1.000000 0.000000
vn  0.000000 0.000000 1.000000
vn  1.000000 0.000000 0.000000
vn  0.000000 -1.000000 0.000000
vn  0.000000 0.000000 1.000000
vn  0.000000 0.000000 1.000000
vn  0.000000 -1.000000 0.000000
vn  1.000000 0.000000 0.000000
vn  0.000000 0.000000 1.000000
vn  0.000000 -1.000000 0.000000
vn  -1.000000 0.000000 0.000000
vn  0.000000 0.000000 1.000000
vn  -1.000000 0.000000 0.000000
vn  0.000000 1.000000 0.000000
vn  0.000000 0.000000 1.000000
vn  0.000000 1.000000 0.000000
vn  1.000000 0.000000 0.000000
vn  0.000000 0.000000 -1.000000
vn  0.000000 -1.000000 0.000000
vn  1.000000 0.000000 0.000000
vn  0.000000 0.000000 -1.000000
vn  0.000000 1.000000 0.000000
vn  1.000000 0.000000 0.000000
vn  0.000000 0.000000 -1.000000
vn  -1.000000 0.000000 0.000000
vn  0.000000 1.000000 0.000000
vn  0.000000 0.000000 -1.000000
vn  0.000000 -1.000000 0.000000
vn  -1.000000 0.000000 0.000000
vn  0.000000 -1.000000 0.000000
vn  0.000000 0.000000 -1.000000
vn  -1.000000 0.000000 0.000000
vn  0.000000 -1.000000 0.000000
vn  0.000000 0.000000 -1.000000
vn  1.000000 0.000000 0.000000
vn  0.000000 -1.000000 0.000000
vn  1.000000 0.000000 0.000000
vn  0.000000 0.000000 1.000000
vn  0.000000 -1.000000 0.000000
vn  0.000000 0.000000 1.000000
vn  -1.000000 0.000000 0.000000
vn  0.000000 1.000000 0.000000
vn  0.000000 0.000000 -1.000000
vn  -1.000000 0.000000 0.000000
vn  0.000000 1.000000 0.000000
vn  0.000000 0.000000 1.000000
vn  -1.000000 0.000000 0.000000
vn  0.000000 1.000000 0.000000
vn  1.000000 0.000000 0.000000
vn  0.000000 0.000000 1.000000
vn  0.000000 1.000000 0.000000
vn  0.000000 0.000000 -1.000000
vn  1.000000 0.000000 0.000000
vn  0.000000 0.000000 -1.000000
vn  0.000000 -1.000000 0.000000
vn  1.000000 0.000000 0.000000
vn  0.000000 0.000000 -1.000000
vn  0.000000 1.000000 0.000000
vn  1.000000 0.000000 0.000000
vn  0.000000 0.000000 -1.000000
vn  -1.000000 0.000000 0.000000
vn  0.000000 1.000000 0.000000
vn  0.000000 0.000000 -1.000000
vn  0.000000 -1.000000 0.000000
vn  -1.000000 0.000000 0.000000
vn  0.000000 0.000000 1.000000
vn  0.000000 -1.000000 0.000000
vn  1.000000 0.000000 0.000000
vn  0.000000 0.000000 1.000000
vn  0.000000 -1.000000 0.000000
vn  -1.000000 0.000000 0.000000
vn  0.000000 0.000000 1.000000
vn  -1.000000 0.000000 0.000000
vn  0.000000 1.000000 0.000000
vn  0.000000 0.000000 1.000000
vn  0.000000 1.000000 0.000000
vn  1.000000 0.000000 0.000000
vn  0.000000 -1.000000 0.000000
vn  0.000000 0.000000 1.000000
vn  -1.000000 0.000000 0.000000
vn  0.000000 -1.000000 0.000000
vn  0.000000 0.000000 -1.000000
vn  -1.000000 0.000000 0.000000
vn  0.000000 -1.000000 0.000000
vn  1.000000 0.000000 0.000000
vn  0.000000 0.000000 -1.000000
vn  0.000000 -1.000000 0.000000
vn  0.000000 0.000000 1.000000
vn  1.000000 0.000000 0.000000
vn  0.000000 1.000000 0.000000
vn  0.000000 0.000000 1.000000
vn  -1.000000 0.000000 0.000000
vn  0.000000 1.000000 0.000000
vn  0.000000 0.000000 1.000000
vn  1.000000 0.000000 0.000000
vn  0.000000 1.000000 0.000000
vn  1.000000 0.000000 0.000000
vn  0.000000 0.000000 -1.000000
vn  0.000000 1.000000 0.000000
vn  0.000000 0.000000 -1.000000
vn  -1.000000 0.000000 0.000000


g 0
g 1
usemtl DEFAULT_MTL
f 7/7/7  4/4/4  1/1/1
f 14/14/14  2/2/2  5/5/5
f 10/10/10  7/7/7  1/1/1
f 82/82/82  12/12/12  3/3/3
f 82/82/82  3/3/3  15/15/15
f 31/31/31  6/6/6  9/9/9
f 23/23/23  14/14/14  5/5/5
f 25/25/25  24/24/24  6/6/6
f 28/28/28  25/25/25  6/6/6
f 31/31/31  28/28/28  6/6/6
f 20/20/20  8/8/8  11/11/11
f 31/31/31  9/9/9  21/21/21
f 20/20/20  11/11/11  17/17/17
f 76/76/76  18/18/18  12/12/12
f 79/79/79  76/76/76  12/12/12
f 82/82/82  79/79/79  12/12/12
f 22/22/22  16/16/16  13/13/13
f 76/76/76  15/15/15  18/18/18
f 76/76/76  73/73/73  15/15/15
f 82/82/82  15/15/15  73/73/73
f 22/22/22  19/19/19  16/16/16
f 25/25/25  21/21/21  24/24/24
f 34/34/34  21/21/21  25/25/25
f 34/34/34  31/31/31  21/21/21
f 52/52/52  26/26/26  29/29/29
f 39/39/39  36/36/36  27/27/27
f 58/58/58  38/38/38  26/26/26
f 52/52/52  49/49/49  26/26/26
f 58/58/58  26/26/26  49/49/49
f 44/44/44  30/30/30  32/32/32
f 48/48/48  30/30/30  44/44/44
f 52/52/52  29/29/29  47/47/47
f 61/61/61  33/33/33  35/35/35
f 67/67/67  45/45/45  33/33/33
f 70/70/70  33/33/33  61/61/61
f 70/70/70  67/67/67  33/33/33
f 42/42/42  36/36/36  39/39/39
f 61/61/61  35/35/35  41/41/41
f 46/46/46  40/40/40  37/37/37
f 58/58/58  47/47/47  38/38/38
f 46/46/46  43/43/43  40/40/40
f 67/67/67  41/41/41  45/45/45
f 64/64/64  61/61/61  41/41/41
f 67/67/67  64/64/64  41/41/41
f 55/55/55  52/52/52  47/47/47
f 58/58/58  55/55/55  47/47/47
f 71/71/71  50/50/50  53/53/53
f 63/63/63  60/60/60  51/51/51
f 71/71/71  62/62/62  50/50/50
f 68/68/68  54/54/54  56/56/56
f 72/72/72  54/54/54  68/68/68
f 65/65/65  57/57/57  59/59/59
f 69/69/69  57/57/57  65/65/65
f 66/66/66  60/60/60  63/63/63
f 96/96/96  75/75/75  78/78/78
f 97/97/97  83/83/83  74/74/74
f 96/96/96  87/87/87  75/75/75
f 97/97/97  74/74/74  86/86/86
f 112/112/112  77/77/77  81/81/81
f 118/118/118  95/95/95  77/77/77
f 112/112/112  109/109/109  77/77/77
f 118/118/118  77/77/77  109/109/109
f 90/90/90  80/80/80  84/84/84
f 92/92/92  80/80/80  90/90/90
f 112/112/112  81/81/81  93/93/93
f 103/103/103  89/89/89  83/83/83
f 106/106/106  83/83/83  97/97/97
f 106/106/106  103/103/103  83/83/83
f 91/91/91  88/88/88  85/85/85
f 103/103/103  86/86/86  89/89/89
f 94/94/94  91/91/91  85/85/85
f 100/100/100  97/97/97  86/86/86
f 103/103/103  100/100/100  86/86/86
f 118/118/118  93/93/93  95/95/95
f 115/115/115  112/112/112  93/93/93
f 118/118/118  115/115/115  93/93/93
f 120/120/120  99/99/99  102/102/102
f 110/110/110  107/107/107  98/98/98
f 120/120/120  111/111/111  99/99/99
f 117/117/117  101/101/101  105/105/105
f 119/119/119  101/101/101  117/117/117
f 114/114/114  104/104/104  108/108/108
f 116/116/116  104/104/104  114/114/114
f 113/113/113  107/107/107  110/110/110
