mtllib refrg_ttuggung.mtl

v  18.540496 0.000000 7.500000
v  18.540496 0.000000 7.500000
v  18.540496 0.000000 7.500000
v  220.000000 0.000000 7.500000
v  220.000000 0.000000 7.500000
v  220.000000 0.000000 7.500000
v  220.000000 0.000000 -7.500000
v  220.000000 0.000000 -7.500000
v  220.000000 0.000000 -7.500000
v  18.540496 0.000000 -7.500000
v  18.540496 0.000000 -7.500000
v  18.540496 0.000000 -7.500000
v  17.253823 0.000000 -10.112989
v  17.253823 0.000000 -10.112989
v  15.620503 0.000000 -12.488768
v  15.620503 0.000000 -12.488768
v  13.646027 0.000000 -14.621182
v  13.646027 0.000000 -14.621182
v  11.389439 0.000000 -16.438597
v  11.389439 0.000000 -16.438597
v  8.896638 0.000000 -17.911890
v  8.896638 0.000000 -17.911890
v  6.206005 0.000000 -19.012190
v  6.206005 0.000000 -19.012190
v  3.396684 0.000000 -19.708171
v  3.396684 0.000000 -19.708171
v  0.511081 0.000000 -19.993420
v  0.511081 0.000000 -19.993420
v  -2.390266 0.000000 -19.855681
v  -2.390266 0.000000 -19.855681
v  -5.230041 0.000000 -19.303060
v  -5.230041 0.000000 -19.303060
v  -7.971313 0.000000 -18.342743
v  -7.971313 0.000000 -18.342743
v  -10.539370 0.000000 -16.996209
v  -10.539370 0.000000 -16.996209
v  -12.882689 0.000000 -15.297522
v  -12.882689 0.000000 -15.297522
v  -14.964361 0.000000 -13.268530
v  -14.964361 0.000000 -13.268530
v  -16.722765 0.000000 -10.967950
v  -16.722765 0.000000 -10.967950
v  -18.133148 0.000000 -8.436940
v  -18.133148 0.000000 -8.436940
v  -19.163881 0.000000 -5.719710
v  -19.163881 0.000000 -5.719710
v  -19.788285 0.000000 -2.894529
v  -19.788285 0.000000 -2.894529
v  -20.000000 0.000000 0.000000
v  -20.000000 0.000000 0.000000
v  -19.788285 0.000000 2.894529
v  -19.788285 0.000000 2.894529
v  -19.163881 0.000000 5.719710
v  -19.163881 0.000000 5.719710
v  -18.133148 0.000000 8.436940
v  -18.133148 0.000000 8.436940
v  -16.722765 0.000000 10.967950
v  -16.722765 0.000000 10.967950
v  -14.964361 0.000000 13.268530
v  -14.964361 0.000000 13.268530
v  -12.882689 0.000000 15.297522
v  -12.882689 0.000000 15.297522
v  -10.539370 0.000000 16.996209
v  -10.539370 0.000000 16.996209
v  -7.971313 0.000000 18.342743
v  -7.971313 0.000000 18.342743
v  -5.230041 0.000000 19.303060
v  -5.230041 0.000000 19.303060
v  -2.390266 0.000000 19.855681
v  -2.390266 0.000000 19.855681
v  0.511081 0.000000 19.993420
v  0.511081 0.000000 19.993420
v  3.396684 0.000000 19.708171
v  3.396684 0.000000 19.708171
v  6.206005 0.000000 19.012190
v  6.206005 0.000000 19.012190
v  8.896638 0.000000 17.911890
v  8.896638 0.000000 17.911890
v  11.389439 0.000000 16.438597
v  11.389439 0.000000 16.438597
v  13.646027 0.000000 14.621182
v  13.646027 0.000000 14.621182
v  15.620503 0.000000 12.488768
v  15.620503 0.000000 12.488768
v  17.253823 0.000000 10.112989
v  17.253823 0.000000 10.112989
v  18.540496 480.000000 -7.500000
v  18.540496 480.000000 -7.500000
v  18.540496 480.000000 -7.500000
v  220.000000 480.000000 -7.500000
v  220.000000 480.000000 -7.500000
v  220.000000 480.000000 -7.500000
v  220.000000 480.000000 7.500000
v  220.000000 480.000000 7.500000
v  220.000000 480.000000 7.500000
v  18.540496 480.000000 7.500000
v  18.540496 480.000000 7.500000
v  18.540496 480.000000 7.500000
v  17.253823 480.000000 10.112989
v  17.253823 480.000000 10.112989
v  15.620503 480.000000 12.488768
v  15.620503 480.000000 12.488768
v  13.646027 480.000000 14.621182
v  13.646027 480.000000 14.621182
v  11.389439 480.000000 16.438597
v  11.389439 480.000000 16.438597
v  8.896638 480.000000 17.911890
v  8.896638 480.000000 17.911890
v  6.206005 480.000000 19.012190
v  6.206005 480.000000 19.012190
v  3.396684 480.000000 19.708171
v  3.396684 480.000000 19.708171
v  0.511081 480.000000 19.993420
v  0.511081 480.000000 19.993420
v  -2.390266 480.000000 19.855681
v  -2.390266 480.000000 19.855681
v  -5.230041 480.000000 19.303060
v  -5.230041 480.000000 19.303060
v  -7.971313 480.000000 18.342743
v  -7.971313 480.000000 18.342743
v  -10.539370 480.000000 16.996209
v  -10.539370 480.000000 16.996209
v  -12.882689 480.000000 15.297522
v  -12.882689 480.000000 15.297522
v  -14.964361 480.000000 13.268530
v  -14.964361 480.000000 13.268530
v  -16.722765 480.000000 10.967950
v  -16.722765 480.000000 10.967950
v  -18.133148 480.000000 8.436940
v  -18.133148 480.000000 8.436940
v  -19.163881 480.000000 5.719710
v  -19.163881 480.000000 5.719710
v  -19.788285 480.000000 2.894529
v  -19.788285 480.000000 2.894529
v  -20.000000 480.000000 -0.000000
v  -20.000000 480.000000 -0.000000
v  -19.788285 480.000000 -2.894529
v  -19.788285 480.000000 -2.894529
v  -19.163881 480.000000 -5.719710
v  -19.163881 480.000000 -5.719710
v  -18.133148 480.000000 -8.436940
v  -18.133148 480.000000 -8.436940
v  -16.722765 480.000000 -10.967950
v  -16.722765 480.000000 -10.967950
v  -14.964361 480.000000 -13.268530
v  -14.964361 480.000000 -13.268530
v  -12.882689 480.000000 -15.297522
v  -12.882689 480.000000 -15.297522
v  -10.539370 480.000000 -16.996209
v  -10.539370 480.000000 -16.996209
v  -7.971313 480.000000 -18.342743
v  -7.971313 480.000000 -18.342743
v  -5.230041 480.000000 -19.303060
v  -5.230041 480.000000 -19.303060
v  -2.390266 480.000000 -19.855681
v  -2.390266 480.000000 -19.855681
v  0.511081 480.000000 -19.993420
v  0.511081 480.000000 -19.993420
v  3.396684 480.000000 -19.708171
v  3.396684 480.000000 -19.708171
v  6.206005 480.000000 -19.012190
v  6.206005 480.000000 -19.012190
v  8.896638 480.000000 -17.911890
v  8.896638 480.000000 -17.911890
v  11.389439 480.000000 -16.438597
v  11.389439 480.000000 -16.438597
v  13.646027 480.000000 -14.621182
v  13.646027 480.000000 -14.621182
v  15.620503 480.000000 -12.488768
v  15.620503 480.000000 -12.488768
v  17.253823 480.000000 -10.112989
v  17.253823 480.000000 -10.112989

vt  0.000000 0.624381 0.000000
vt  0.000000 0.624381 0.000000
vt  0.000000 0.624381 0.000000
vt  0.000000 0.511027 0.000000
vt  0.000000 0.511027 0.000000
vt  0.000000 0.511027 0.000000
vt  0.000000 0.488973 0.000000
vt  0.000000 0.488973 0.000000
vt  0.000000 0.488973 0.000000
vt  0.000000 0.375619 0.000000
vt  0.000000 0.375619 0.000000
vt  0.000000 0.375619 0.000000
vt  0.000000 0.328454 0.000000
vt  0.000000 0.328454 0.000000
vt  0.000000 0.281768 0.000000
vt  0.000000 0.281768 0.000000
vt  0.000000 0.234707 0.000000
vt  0.000000 0.234707 0.000000
vt  0.000000 0.187787 0.000000
vt  0.000000 0.187787 0.000000
vt  0.000000 0.140897 0.000000
vt  0.000000 0.140897 0.000000
vt  0.000000 0.093824 0.000000
vt  0.000000 0.093824 0.000000
vt  0.000000 0.046956 0.000000
vt  0.000000 0.046956 0.000000
vt  0.000000 0.000000 0.000000
vt  0.000000 0.000000 0.000000
vt  1.000000 0.030496 0.000000
vt  1.000000 0.030496 0.000000
vt  1.000000 0.077345 0.000000
vt  1.000000 0.077345 0.000000
vt  1.000000 0.124381 0.000000
vt  1.000000 0.124381 0.000000
vt  1.000000 0.171337 0.000000
vt  1.000000 0.171337 0.000000
vt  1.000000 0.218205 0.000000
vt  1.000000 0.218205 0.000000
vt  1.000000 0.265278 0.000000
vt  1.000000 0.265278 0.000000
vt  1.000000 0.312168 0.000000
vt  1.000000 0.312168 0.000000
vt  1.000000 0.359088 0.000000
vt  1.000000 0.359088 0.000000
vt  1.000000 0.406148 0.000000
vt  1.000000 0.406148 0.000000
vt  1.000000 0.453002 0.000000
vt  1.000000 0.453002 0.000000
vt  1.000000 0.500000 0.000000
vt  1.000000 0.500000 0.000000
vt  1.000000 0.546998 0.000000
vt  1.000000 0.546998 0.000000
vt  1.000000 0.593852 0.000000
vt  1.000000 0.593852 0.000000
vt  1.000000 0.640912 0.000000
vt  1.000000 0.640912 0.000000
vt  1.000000 0.687832 0.000000
vt  1.000000 0.687832 0.000000
vt  1.000000 0.734722 0.000000
vt  1.000000 0.734722 0.000000
vt  1.000000 0.781795 0.000000
vt  1.000000 0.781795 0.000000
vt  1.000000 0.828663 0.000000
vt  1.000000 0.828663 0.000000
vt  1.000000 0.875619 0.000000
vt  1.000000 0.875619 0.000000
vt  1.000000 0.922655 0.000000
vt  1.000000 0.922655 0.000000
vt  1.000000 0.969504 0.000000
vt  1.000000 0.969504 0.000000
vt  0.000000 1.000000 0.000000
vt  0.000000 1.000000 0.000000
vt  0.000000 0.953044 0.000000
vt  0.000000 0.953044 0.000000
vt  0.000000 0.906176 0.000000
vt  0.000000 0.906176 0.000000
vt  0.000000 0.859103 0.000000
vt  0.000000 0.859103 0.000000
vt  0.000000 0.812213 0.000000
vt  0.000000 0.812213 0.000000
vt  0.000000 0.765293 0.000000
vt  0.000000 0.765293 0.000000
vt  0.000000 0.718232 0.000000
vt  0.000000 0.718232 0.000000
vt  0.000000 0.671546 0.000000
vt  0.000000 0.671546 0.000000
vt  0.487711 0.494948 0.000000
vt  0.487711 0.494948 0.000000
vt  0.487711 0.494948 0.000000
vt  0.363202 0.495404 0.000000
vt  0.363202 0.495404 0.000000
vt  0.363202 0.495404 0.000000
vt  0.363202 0.504596 0.000000
vt  0.363202 0.504596 0.000000
vt  0.363202 0.504596 0.000000
vt  0.487711 0.505052 0.000000
vt  0.487711 0.505052 0.000000
vt  0.487711 0.505052 0.000000
vt  0.488563 0.506812 0.000000
vt  0.488563 0.506812 0.000000
vt  0.489645 0.508412 0.000000
vt  0.489645 0.508412 0.000000
vt  0.490953 0.509849 0.000000
vt  0.490953 0.509849 0.000000
vt  0.492449 0.511074 0.000000
vt  0.492449 0.511074 0.000000
vt  0.494101 0.512067 0.000000
vt  0.494101 0.512067 0.000000
vt  0.495885 0.512809 0.000000
vt  0.495885 0.512809 0.000000
vt  0.497748 0.513278 0.000000
vt  0.497748 0.513278 0.000000
vt  0.499661 0.513470 0.000000
vt  0.499661 0.513470 0.000000
vt  0.501585 0.513377 0.000000
vt  0.501585 0.513377 0.000000
vt  0.503468 0.513005 0.000000
vt  0.503468 0.513005 0.000000
vt  0.505286 0.512357 0.000000
vt  0.505286 0.512357 0.000000
vt  0.506988 0.511450 0.000000
vt  0.506988 0.511450 0.000000
vt  0.508541 0.510305 0.000000
vt  0.508541 0.510305 0.000000
vt  0.509920 0.508938 0.000000
vt  0.509920 0.508938 0.000000
vt  0.511085 0.507388 0.000000
vt  0.511085 0.507388 0.000000
vt  0.512019 0.505683 0.000000
vt  0.512019 0.505683 0.000000
vt  0.512702 0.503852 0.000000
vt  0.512702 0.503852 0.000000
vt  0.513115 0.501950 0.000000
vt  0.513115 0.501950 0.000000
vt  0.513255 0.500000 0.000000
vt  0.513255 0.500000 0.000000
vt  0.513115 0.498050 0.000000
vt  0.513115 0.498050 0.000000
vt  0.512702 0.496148 0.000000
vt  0.512702 0.496148 0.000000
vt  0.512019 0.494317 0.000000
vt  0.512019 0.494317 0.000000
vt  0.511085 0.492612 0.000000
vt  0.511085 0.492612 0.000000
vt  0.509920 0.491062 0.000000
vt  0.509920 0.491062 0.000000
vt  0.508541 0.489695 0.000000
vt  0.508541 0.489695 0.000000
vt  0.506988 0.488550 0.000000
vt  0.506988 0.488550 0.000000
vt  0.505286 0.487643 0.000000
vt  0.505286 0.487643 0.000000
vt  0.503468 0.486995 0.000000
vt  0.503468 0.486995 0.000000
vt  0.501585 0.486623 0.000000
vt  0.501585 0.486623 0.000000
vt  0.499661 0.486530 0.000000
vt  0.499661 0.486530 0.000000
vt  0.497748 0.486722 0.000000
vt  0.497748 0.486722 0.000000
vt  0.495885 0.487191 0.000000
vt  0.495885 0.487191 0.000000
vt  0.494101 0.487933 0.000000
vt  0.494101 0.487933 0.000000
vt  0.492449 0.488926 0.000000
vt  0.492449 0.488926 0.000000
vt  0.490953 0.490151 0.000000
vt  0.490953 0.490151 0.000000
vt  0.489645 0.491588 0.000000
vt  0.489645 0.491588 0.000000
vt  0.488563 0.493188 0.000000
vt  0.488563 0.493188 0.000000

vn  0.000000 -1.000000 0.000000
vn  0.927025 0.000000 0.375000
vn  0.000000 0.000000 1.000000
vn  0.000000 -1.000000 0.000000
vn  1.000000 0.000000 0.000000
vn  0.000000 0.000000 1.000000
vn  0.000000 -1.000000 0.000000
vn  1.000000 0.000000 0.000000
vn  0.000000 0.000000 -1.000000
vn  0.000000 -1.000000 0.000000
vn  0.927025 0.000000 -0.375000
vn  0.000000 0.000000 -1.000000
vn  0.000000 -1.000000 0.000000
vn  0.863051 0.000000 -0.505118
vn  0.000000 -1.000000 0.000000
vn  0.780939 0.000000 -0.624608
vn  0.000000 -1.000000 0.000000
vn  0.682417 0.000000 -0.730963
vn  0.000000 -1.000000 0.000000
vn  0.569532 0.000000 -0.821969
vn  0.000000 -1.000000 0.000000
vn  0.444675 0.000000 -0.895692
vn  0.000000 -1.000000 0.000000
vn  0.310494 0.000000 -0.950575
vn  0.000000 -1.000000 0.000000
vn  0.169768 0.000000 -0.985484
vn  0.000000 -1.000000 0.000000
vn  0.025464 0.000000 -0.999676
vn  0.000000 -1.000000 0.000000
vn  -0.119359 0.000000 -0.992851
vn  0.000000 -1.000000 0.000000
vn  -0.261671 0.000000 -0.965157
vn  0.000000 -1.000000 0.000000
vn  -0.398484 0.000000 -0.917175
vn  0.000000 -1.000000 0.000000
vn  -0.526935 0.000000 -0.849905
vn  0.000000 -1.000000 0.000000
vn  -0.644301 0.000000 -0.764772
vn  0.000000 -1.000000 0.000000
vn  -0.748109 0.000000 -0.663576
vn  0.000000 -1.000000 0.000000
vn  -0.836208 0.000000 -0.548412
vn  0.000000 -1.000000 0.000000
vn  -0.906729 0.000000 -0.421714
vn  0.000000 -1.000000 0.000000
vn  -0.958177 0.000000 -0.286175
vn  0.000000 -1.000000 0.000000
vn  -0.989488 0.000000 -0.144612
vn  0.000000 -1.000000 0.000000
vn  -1.000000 0.000000 0.000000
vn  0.000000 -1.000000 0.000000
vn  -0.989488 0.000000 0.144612
vn  0.000000 -1.000000 0.000000
vn  -0.958177 0.000000 0.286175
vn  0.000000 -1.000000 0.000000
vn  -0.906729 0.000000 0.421714
vn  0.000000 -1.000000 0.000000
vn  -0.836208 0.000000 0.548412
vn  0.000000 -1.000000 0.000000
vn  -0.748109 0.000000 0.663576
vn  0.000000 -1.000000 0.000000
vn  -0.644301 0.000000 0.764772
vn  0.000000 -1.000000 0.000000
vn  -0.526935 0.000000 0.849905
vn  0.000000 -1.000000 0.000000
vn  -0.398484 0.000000 0.917175
vn  0.000000 -1.000000 0.000000
vn  -0.261671 0.000000 0.965157
vn  0.000000 -1.000000 0.000000
vn  -0.119359 0.000000 0.992851
vn  0.000000 -1.000000 0.000000
vn  0.025464 0.000000 0.999676
vn  0.000000 -1.000000 0.000000
vn  0.169768 0.000000 0.985484
vn  0.000000 -1.000000 0.000000
vn  0.310494 0.000000 0.950575
vn  0.000000 -1.000000 0.000000
vn  0.444675 0.000000 0.895692
vn  0.000000 -1.000000 0.000000
vn  0.569532 0.000000 0.821969
vn  0.000000 -1.000000 0.000000
vn  0.682417 0.000000 0.730963
vn  0.000000 -1.000000 0.000000
vn  0.780939 0.000000 0.624608
vn  0.000000 -1.000000 0.000000
vn  0.863051 0.000000 0.505118
vn  0.000000 1.000000 0.000000
vn  0.927025 0.000000 -0.375000
vn  0.000000 0.000000 -1.000000
vn  0.000000 1.000000 0.000000
vn  1.000000 0.000000 0.000000
vn  0.000000 0.000000 -1.000000
vn  0.000000 1.000000 0.000000
vn  1.000000 0.000000 0.000000
vn  0.000000 0.000000 1.000000
vn  0.000000 1.000000 0.000000
vn  0.927025 0.000000 0.375000
vn  0.000000 0.000000 1.000000
vn  0.000000 1.000000 0.000000
vn  0.863051 0.000000 0.505118
vn  0.000000 1.000000 0.000000
vn  0.780939 0.000000 0.624608
vn  0.000000 1.000000 0.000000
vn  0.682417 0.000000 0.730963
vn  0.000000 1.000000 0.000000
vn  0.569532 0.000000 0.821969
vn  0.000000 1.000000 0.000000
vn  0.444675 0.000000 0.895692
vn  0.000000 1.000000 0.000000
vn  0.310494 0.000000 0.950575
vn  0.000000 1.000000 0.000000
vn  0.169768 0.000000 0.985484
vn  0.000000 1.000000 0.000000
vn  0.025464 0.000000 0.999676
vn  0.000000 1.000000 0.000000
vn  -0.119359 0.000000 0.992851
vn  0.000000 1.000000 0.000000
vn  -0.261671 0.000000 0.965157
vn  0.000000 1.000000 0.000000
vn  -0.398484 0.000000 0.917175
vn  0.000000 1.000000 0.000000
vn  -0.526935 0.000000 0.849905
vn  0.000000 1.000000 0.000000
vn  -0.644301 0.000000 0.764772
vn  0.000000 1.000000 0.000000
vn  -0.748109 0.000000 0.663576
vn  0.000000 1.000000 0.000000
vn  -0.836208 0.000000 0.548412
vn  0.000000 1.000000 0.000000
vn  -0.906729 0.000000 0.421714
vn  0.000000 1.000000 0.000000
vn  -0.958177 0.000000 0.286175
vn  0.000000 1.000000 0.000000
vn  -0.989488 0.000000 0.144612
vn  0.000000 1.000000 0.000000
vn  -1.000000 0.000000 -0.000000
vn  0.000000 1.000000 0.000000
vn  -0.989488 0.000000 -0.144612
vn  0.000000 1.000000 0.000000
vn  -0.958177 0.000000 -0.286175
vn  0.000000 1.000000 0.000000
vn  -0.906729 0.000000 -0.421714
vn  0.000000 1.000000 0.000000
vn  -0.836208 0.000000 -0.548412
vn  0.000000 1.000000 0.000000
vn  -0.748109 0.000000 -0.663576
vn  0.000000 1.000000 0.000000
vn  -0.644301 0.000000 -0.764772
vn  0.000000 1.000000 0.000000
vn  -0.526935 0.000000 -0.849905
vn  0.000000 1.000000 0.000000
vn  -0.398484 0.000000 -0.917175
vn  0.000000 1.000000 0.000000
vn  -0.261671 0.000000 -0.965157
vn  0.000000 1.000000 0.000000
vn  -0.119359 0.000000 -0.992851
vn  0.000000 1.000000 0.000000
vn  0.025464 0.000000 -0.999676
vn  0.000000 1.000000 0.000000
vn  0.169768 0.000000 -0.985484
vn  0.000000 1.000000 0.000000
vn  0.310494 0.000000 -0.950575
vn  0.000000 1.000000 0.000000
vn  0.444675 0.000000 -0.895692
vn  0.000000 1.000000 0.000000
vn  0.569532 0.000000 -0.821969
vn  0.000000 1.000000 0.000000
vn  0.682417 0.000000 -0.730963
vn  0.000000 1.000000 0.000000
vn  0.780939 0.000000 -0.624608
vn  0.000000 1.000000 0.000000
vn  0.863051 0.000000 -0.505118


g 0
g 1
usemtl DEFAULT_MTL
f 7/7/7  4/4/4  1/1/1
f 95/95/95  3/3/3  6/6/6
f 10/10/10  7/7/7  1/1/1
f 85/85/85  10/10/10  1/1/1
f 100/100/100  86/86/86  2/2/2
f 98/98/98  3/3/3  95/95/95
f 100/100/100  2/2/2  97/97/97
f 91/91/91  5/5/5  8/8/8
f 94/94/94  5/5/5  91/91/91
f 89/89/89  9/9/9  12/12/12
f 92/92/92  9/9/9  89/89/89
f 85/85/85  13/13/13  10/10/10
f 88/88/88  11/11/11  14/14/14
f 83/83/83  15/15/15  13/13/13
f 172/172/172  14/14/14  16/16/16
f 85/85/85  83/83/83  13/13/13
f 172/172/172  88/88/88  14/14/14
f 81/81/81  17/17/17  15/15/15
f 170/170/170  16/16/16  18/18/18
f 83/83/83  81/81/81  15/15/15
f 172/172/172  16/16/16  170/170/170
f 79/79/79  19/19/19  17/17/17
f 168/168/168  18/18/18  20/20/20
f 81/81/81  79/79/79  17/17/17
f 170/170/170  18/18/18  168/168/168
f 77/77/77  21/21/21  19/19/19
f 166/166/166  20/20/20  22/22/22
f 79/79/79  77/77/77  19/19/19
f 168/168/168  20/20/20  166/166/166
f 75/75/75  23/23/23  21/21/21
f 164/164/164  22/22/22  24/24/24
f 77/77/77  75/75/75  21/21/21
f 166/166/166  22/22/22  164/164/164
f 73/73/73  25/25/25  23/23/23
f 162/162/162  24/24/24  26/26/26
f 75/75/75  73/73/73  23/23/23
f 164/164/164  24/24/24  162/162/162
f 71/71/71  27/27/27  25/25/25
f 160/160/160  26/26/26  28/28/28
f 73/73/73  71/71/71  25/25/25
f 162/162/162  26/26/26  160/160/160
f 69/69/69  29/29/29  27/27/27
f 158/158/158  28/28/28  30/30/30
f 71/71/71  69/69/69  27/27/27
f 160/160/160  28/28/28  158/158/158
f 67/67/67  31/31/31  29/29/29
f 156/156/156  30/30/30  32/32/32
f 69/69/69  67/67/67  29/29/29
f 158/158/158  30/30/30  156/156/156
f 65/65/65  33/33/33  31/31/31
f 154/154/154  32/32/32  34/34/34
f 67/67/67  65/65/65  31/31/31
f 156/156/156  32/32/32  154/154/154
f 63/63/63  35/35/35  33/33/33
f 152/152/152  34/34/34  36/36/36
f 65/65/65  63/63/63  33/33/33
f 154/154/154  34/34/34  152/152/152
f 61/61/61  37/37/37  35/35/35
f 150/150/150  36/36/36  38/38/38
f 63/63/63  61/61/61  35/35/35
f 152/152/152  36/36/36  150/150/150
f 59/59/59  39/39/39  37/37/37
f 148/148/148  38/38/38  40/40/40
f 61/61/61  59/59/59  37/37/37
f 150/150/150  38/38/38  148/148/148
f 57/57/57  41/41/41  39/39/39
f 146/146/146  40/40/40  42/42/42
f 59/59/59  57/57/57  39/39/39
f 148/148/148  40/40/40  146/146/146
f 55/55/55  43/43/43  41/41/41
f 144/144/144  42/42/42  44/44/44
f 57/57/57  55/55/55  41/41/41
f 146/146/146  42/42/42  144/144/144
f 53/53/53  45/45/45  43/43/43
f 142/142/142  44/44/44  46/46/46
f 55/55/55  53/53/53  43/43/43
f 144/144/144  44/44/44  142/142/142
f 51/51/51  47/47/47  45/45/45
f 140/140/140  46/46/46  48/48/48
f 53/53/53  51/51/51  45/45/45
f 142/142/142  46/46/46  140/140/140
f 51/51/51  49/49/49  47/47/47
f 138/138/138  48/48/48  50/50/50
f 140/140/140  48/48/48  138/138/138
f 136/136/136  50/50/50  52/52/52
f 138/138/138  50/50/50  136/136/136
f 134/134/134  52/52/52  54/54/54
f 136/136/136  52/52/52  134/134/134
f 132/132/132  54/54/54  56/56/56
f 134/134/134  54/54/54  132/132/132
f 130/130/130  56/56/56  58/58/58
f 132/132/132  56/56/56  130/130/130
f 128/128/128  58/58/58  60/60/60
f 130/130/130  58/58/58  128/128/128
f 126/126/126  60/60/60  62/62/62
f 128/128/128  60/60/60  126/126/126
f 124/124/124  62/62/62  64/64/64
f 126/126/126  62/62/62  124/124/124
f 122/122/122  64/64/64  66/66/66
f 124/124/124  64/64/64  122/122/122
f 120/120/120  66/66/66  68/68/68
f 122/122/122  66/66/66  120/120/120
f 118/118/118  68/68/68  70/70/70
f 120/120/120  68/68/68  118/118/118
f 116/116/116  70/70/70  72/72/72
f 118/118/118  70/70/70  116/116/116
f 114/114/114  72/72/72  74/74/74
f 116/116/116  72/72/72  114/114/114
f 112/112/112  74/74/74  76/76/76
f 114/114/114  74/74/74  112/112/112
f 110/110/110  76/76/76  78/78/78
f 112/112/112  76/76/76  110/110/110
f 108/108/108  78/78/78  80/80/80
f 110/110/110  78/78/78  108/108/108
f 106/106/106  80/80/80  82/82/82
f 108/108/108  80/80/80  106/106/106
f 104/104/104  82/82/82  84/84/84
f 106/106/106  82/82/82  104/104/104
f 102/102/102  84/84/84  86/86/86
f 104/104/104  84/84/84  102/102/102
f 102/102/102  86/86/86  100/100/100
f 93/93/93  90/90/90  87/87/87
f 96/96/96  93/93/93  87/87/87
f 171/171/171  96/96/96  87/87/87
f 171/171/171  99/99/99  96/96/96
f 169/169/169  101/101/101  99/99/99
f 171/171/171  169/169/169  99/99/99
f 167/167/167  103/103/103  101/101/101
f 169/169/169  167/167/167  101/101/101
f 165/165/165  105/105/105  103/103/103
f 167/167/167  165/165/165  103/103/103
f 163/163/163  107/107/107  105/105/105
f 165/165/165  163/163/163  105/105/105
f 161/161/161  109/109/109  107/107/107
f 163/163/163  161/161/161  107/107/107
f 159/159/159  111/111/111  109/109/109
f 161/161/161  159/159/159  109/109/109
f 157/157/157  113/113/113  111/111/111
f 159/159/159  157/157/157  111/111/111
f 155/155/155  115/115/115  113/113/113
f 157/157/157  155/155/155  113/113/113
f 153/153/153  117/117/117  115/115/115
f 155/155/155  153/153/153  115/115/115
f 151/151/151  119/119/119  117/117/117
f 153/153/153  151/151/151  117/117/117
f 149/149/149  121/121/121  119/119/119
f 151/151/151  149/149/149  119/119/119
f 147/147/147  123/123/123  121/121/121
f 149/149/149  147/147/147  121/121/121
f 145/145/145  125/125/125  123/123/123
f 147/147/147  145/145/145  123/123/123
f 143/143/143  127/127/127  125/125/125
f 145/145/145  143/143/143  125/125/125
f 141/141/141  129/129/129  127/127/127
f 143/143/143  141/141/141  127/127/127
f 139/139/139  131/131/131  129/129/129
f 141/141/141  139/139/139  129/129/129
f 137/137/137  133/133/133  131/131/131
f 139/139/139  137/137/137  131/131/131
f 137/137/137  135/135/135  133/133/133
