mtllib sauce_refrg.mtl

v  -240.000000 0.000000 130.000000
v  -240.000000 0.000000 130.000000
v  -240.000000 0.000000 130.000000
v  240.000000 0.000000 130.000000
v  240.000000 0.000000 130.000000
v  240.000000 0.000000 130.000000
v  240.000000 0.000000 -100.000000
v  240.000000 0.000000 -100.000000
v  240.000000 0.000000 -100.000000
v  -240.000000 0.000000 -100.000000
v  -240.000000 0.000000 -100.000000
v  -240.000000 0.000000 -100.000000
v  -225.000000 180.000000 -85.000000
v  -225.000000 180.000000 -85.000000
v  -225.000000 180.000000 -85.000000
v  -225.000000 180.000000 85.000000
v  -225.000000 180.000000 85.000000
v  -225.000000 180.000000 85.000000
v  225.000000 180.000000 85.000000
v  225.000000 180.000000 85.000000
v  225.000000 180.000000 85.000000
v  225.000000 180.000000 -85.000000
v  225.000000 180.000000 -85.000000
v  225.000000 180.000000 -85.000000
v  240.000000 180.000000 101.459504
v  240.000000 180.000000 101.459504
v  240.000000 180.000000 101.459504
v  -240.000000 180.000000 101.459504
v  -240.000000 180.000000 101.459504
v  -240.000000 180.000000 101.459504
v  -240.000000 180.000000 -100.000000
v  -240.000000 180.000000 -100.000000
v  -240.000000 180.000000 -100.000000
v  240.000000 180.000000 -100.000000
v  240.000000 180.000000 -100.000000
v  240.000000 180.000000 -100.000000
v  -240.000000 177.435974 102.717201
v  -240.000000 177.435974 102.717201
v  -240.000000 175.094032 104.313659
v  -240.000000 175.094032 104.313659
v  -240.000000 172.990584 106.234941
v  -240.000000 172.990584 106.234941
v  -240.000000 171.182535 108.436700
v  -240.000000 171.182535 108.436700
v  -240.000000 169.708273 110.866348
v  -240.000000 169.708273 110.866348
v  -240.000000 168.590086 113.487307
v  -240.000000 168.590086 113.487307
v  -240.000000 167.857135 116.241340
v  -240.000000 167.857135 116.241340
v  -240.000000 167.522662 119.064630
v  -240.000000 167.522662 119.064630
v  -240.000000 167.591854 121.914604
v  -240.000000 167.591854 121.914604
v  -240.000000 168.067262 124.726198
v  -240.000000 168.067262 124.726198
v  -240.000000 168.931260 127.428442
v  -240.000000 168.931260 127.428442
v  -240.000000 170.179492 130.000000
v  -240.000000 170.179492 130.000000
v  -240.000000 170.179492 130.000000
v  240.000000 170.179492 130.000000
v  240.000000 170.179492 130.000000
v  240.000000 170.179492 130.000000
v  240.000000 168.931260 127.428442
v  240.000000 168.931260 127.428442
v  240.000000 168.067262 124.726198
v  240.000000 168.067262 124.726198
v  240.000000 167.591854 121.914604
v  240.000000 167.591854 121.914604
v  240.000000 167.522662 119.064630
v  240.000000 167.522662 119.064630
v  240.000000 167.857135 116.241340
v  240.000000 167.857135 116.241340
v  240.000000 168.590086 113.487307
v  240.000000 168.590086 113.487307
v  240.000000 169.708273 110.866348
v  240.000000 169.708273 110.866348
v  240.000000 171.182535 108.436700
v  240.000000 171.182535 108.436700
v  240.000000 172.990584 106.234941
v  240.000000 172.990584 106.234941
v  240.000000 175.094032 104.313659
v  240.000000 175.094032 104.313659
v  240.000000 177.435974 102.717201
v  240.000000 177.435974 102.717201
v  -225.000000 40.000000 -85.000000
v  -225.000000 40.000000 -85.000000
v  -225.000000 40.000000 -85.000000
v  225.000000 40.000000 -85.000000
v  225.000000 40.000000 -85.000000
v  225.000000 40.000000 -85.000000
v  225.000000 40.000000 85.000000
v  225.000000 40.000000 85.000000
v  225.000000 40.000000 85.000000
v  -225.000000 40.000000 85.000000
v  -225.000000 40.000000 85.000000
v  -225.000000 40.000000 85.000000
v  -65.000000 40.000000 -65.000000
v  -65.000000 40.000000 -65.000000
v  -65.000000 40.000000 -65.000000
v  -65.000000 40.000000 65.000000
v  -65.000000 40.000000 65.000000
v  -65.000000 40.000000 65.000000
v  65.000000 40.000000 65.000000
v  65.000000 40.000000 65.000000
v  65.000000 40.000000 65.000000
v  65.000000 40.000000 -65.000000
v  65.000000 40.000000 -65.000000
v  65.000000 40.000000 -65.000000
v  -80.000000 40.000000 65.000000
v  -80.000000 40.000000 65.000000
v  -80.000000 40.000000 65.000000
v  -80.000000 40.000000 -65.000000
v  -80.000000 40.000000 -65.000000
v  -80.000000 40.000000 -65.000000
v  -210.000000 40.000000 -65.000000
v  -210.000000 40.000000 -65.000000
v  -210.000000 40.000000 -65.000000
v  -210.000000 40.000000 65.000000
v  -210.000000 40.000000 65.000000
v  -210.000000 40.000000 65.000000
v  210.000000 40.000000 65.000000
v  210.000000 40.000000 65.000000
v  210.000000 40.000000 65.000000
v  210.000000 40.000000 -65.000000
v  210.000000 40.000000 -65.000000
v  210.000000 40.000000 -65.000000
v  80.000000 40.000000 -65.000000
v  80.000000 40.000000 -65.000000
v  80.000000 40.000000 -65.000000
v  80.000000 40.000000 65.000000
v  80.000000 40.000000 65.000000
v  80.000000 40.000000 65.000000
v  -65.000000 20.000000 -65.000000
v  -65.000000 20.000000 -65.000000
v  -65.000000 20.000000 -65.000000
v  65.000000 20.000000 -65.000000
v  65.000000 20.000000 -65.000000
v  65.000000 20.000000 -65.000000
v  65.000000 20.000000 65.000000
v  65.000000 20.000000 65.000000
v  65.000000 20.000000 65.000000
v  -65.000000 20.000000 65.000000
v  -65.000000 20.000000 65.000000
v  -65.000000 20.000000 65.000000
v  -80.000000 20.000000 65.000000
v  -80.000000 20.000000 65.000000
v  -80.000000 20.000000 65.000000
v  -210.000000 20.000000 65.000000
v  -210.000000 20.000000 65.000000
v  -210.000000 20.000000 65.000000
v  -210.000000 20.000000 -65.000000
v  -210.000000 20.000000 -65.000000
v  -210.000000 20.000000 -65.000000
v  -80.000000 20.000000 -65.000000
v  -80.000000 20.000000 -65.000000
v  -80.000000 20.000000 -65.000000
v  210.000000 20.000000 65.000000
v  210.000000 20.000000 65.000000
v  210.000000 20.000000 65.000000
v  80.000000 20.000000 65.000000
v  80.000000 20.000000 65.000000
v  80.000000 20.000000 65.000000
v  80.000000 20.000000 -65.000000
v  80.000000 20.000000 -65.000000
v  80.000000 20.000000 -65.000000
v  210.000000 20.000000 -65.000000
v  210.000000 20.000000 -65.000000
v  210.000000 20.000000 -65.000000

vt  1.000000 0.825399 0.000000
vt  1.000000 0.825399 0.000000
vt  1.000000 0.825399 0.000000
vt  0.000000 0.825399 0.000000
vt  0.000000 0.825399 0.000000
vt  0.000000 0.825399 0.000000
vt  0.000000 0.241220 0.000000
vt  0.000000 0.241220 0.000000
vt  0.000000 0.241220 0.000000
vt  1.000000 0.241220 0.000000
vt  1.000000 0.241220 0.000000
vt  1.000000 0.241220 0.000000
vt  0.785223 0.311968 0.000000
vt  0.785223 0.311968 0.000000
vt  0.785223 0.311968 0.000000
vt  0.785223 0.688032 0.000000
vt  0.785223 0.688032 0.000000
vt  0.785223 0.688032 0.000000
vt  0.214777 0.688032 0.000000
vt  0.214777 0.688032 0.000000
vt  0.214777 0.688032 0.000000
vt  0.214777 0.311968 0.000000
vt  0.214777 0.311968 0.000000
vt  0.214777 0.311968 0.000000
vt  0.204833 0.713769 0.000000
vt  0.204833 0.713769 0.000000
vt  0.204833 0.713769 0.000000
vt  0.795167 0.713769 0.000000
vt  0.795167 0.713769 0.000000
vt  0.795167 0.713769 0.000000
vt  0.795167 0.289097 0.000000
vt  0.795167 0.289097 0.000000
vt  0.795167 0.289097 0.000000
vt  0.204833 0.289097 0.000000
vt  0.204833 0.289097 0.000000
vt  0.204833 0.289097 0.000000
vt  0.797355 0.717262 0.000000
vt  0.797355 0.717262 0.000000
vt  0.799373 0.721344 0.000000
vt  0.799373 0.721344 0.000000
vt  0.801201 0.725977 0.000000
vt  0.801201 0.725977 0.000000
vt  0.802785 0.731045 0.000000
vt  0.802785 0.731045 0.000000
vt  0.804084 0.736417 0.000000
vt  0.804084 0.736417 0.000000
vt  0.805075 0.742003 0.000000
vt  0.805075 0.742003 0.000000
vt  0.805727 0.747662 0.000000
vt  0.805727 0.747662 0.000000
vt  0.806025 0.753252 0.000000
vt  0.806025 0.753252 0.000000
vt  0.805963 0.758678 0.000000
vt  0.805963 0.758678 0.000000
vt  0.805540 0.763805 0.000000
vt  0.805540 0.763805 0.000000
vt  0.804772 0.768501 0.000000
vt  0.804772 0.768501 0.000000
vt  0.803668 0.772723 0.000000
vt  0.803668 0.772723 0.000000
vt  0.803668 0.772723 0.000000
vt  0.196332 0.772723 0.000000
vt  0.196332 0.772723 0.000000
vt  0.196332 0.772723 0.000000
vt  0.195228 0.768501 0.000000
vt  0.195228 0.768501 0.000000
vt  0.194460 0.763805 0.000000
vt  0.194460 0.763805 0.000000
vt  0.194037 0.758678 0.000000
vt  0.194037 0.758678 0.000000
vt  0.193975 0.753252 0.000000
vt  0.193975 0.753252 0.000000
vt  0.194273 0.747662 0.000000
vt  0.194273 0.747662 0.000000
vt  0.194925 0.742003 0.000000
vt  0.194925 0.742003 0.000000
vt  0.195916 0.736417 0.000000
vt  0.195916 0.736417 0.000000
vt  0.197215 0.731045 0.000000
vt  0.197215 0.731045 0.000000
vt  0.198799 0.725977 0.000000
vt  0.198799 0.725977 0.000000
vt  0.200627 0.721344 0.000000
vt  0.200627 0.721344 0.000000
vt  0.202645 0.717262 0.000000
vt  0.202645 0.717262 0.000000
vt  0.943997 0.266587 0.000000
vt  0.943997 0.266587 0.000000
vt  0.943997 0.266587 0.000000
vt  0.056003 0.266587 0.000000
vt  0.056003 0.266587 0.000000
vt  0.056003 0.266587 0.000000
vt  0.056003 0.733413 0.000000
vt  0.056003 0.733413 0.000000
vt  0.056003 0.733413 0.000000
vt  0.943997 0.733413 0.000000
vt  0.943997 0.733413 0.000000
vt  0.943997 0.733413 0.000000
vt  0.824403 0.037583 0.000000
vt  0.824403 0.037583 0.000000
vt  0.824403 0.037583 0.000000
vt  0.824403 0.962417 0.000000
vt  0.824403 0.962417 0.000000
vt  0.824403 0.962417 0.000000
vt  0.175597 0.962417 0.000000
vt  0.175597 0.962417 0.000000
vt  0.175597 0.962417 0.000000
vt  0.175597 0.037583 0.000000
vt  0.175597 0.037583 0.000000
vt  0.175597 0.037583 0.000000
vt  0.852416 0.911932 0.000000
vt  0.852416 0.911932 0.000000
vt  0.852416 0.911932 0.000000
vt  0.852416 0.088068 0.000000
vt  0.852416 0.088068 0.000000
vt  0.852416 0.088068 0.000000
vt  0.940087 0.306517 0.000000
vt  0.940087 0.306517 0.000000
vt  0.940087 0.306517 0.000000
vt  0.940087 0.693483 0.000000
vt  0.940087 0.693483 0.000000
vt  0.940087 0.693483 0.000000
vt  0.059913 0.693483 0.000000
vt  0.059913 0.693483 0.000000
vt  0.059913 0.693483 0.000000
vt  0.059913 0.306517 0.000000
vt  0.059913 0.306517 0.000000
vt  0.059913 0.306517 0.000000
vt  0.147584 0.088068 0.000000
vt  0.147584 0.088068 0.000000
vt  0.147584 0.088068 0.000000
vt  0.147584 0.911932 0.000000
vt  0.147584 0.911932 0.000000
vt  0.147584 0.911932 0.000000
vt  0.904985 0.000000 0.000000
vt  0.904985 0.000000 0.000000
vt  0.904985 0.000000 0.000000
vt  0.095015 0.000000 0.000000
vt  0.095015 0.000000 0.000000
vt  0.095015 0.000000 0.000000
vt  0.095015 1.000000 0.000000
vt  0.095015 1.000000 0.000000
vt  0.095015 1.000000 0.000000
vt  0.904985 1.000000 0.000000
vt  0.904985 1.000000 0.000000
vt  0.904985 1.000000 0.000000
vt  0.922021 0.937557 0.000000
vt  0.922021 0.937557 0.000000
vt  0.922021 0.937557 0.000000
vt  0.969776 0.695924 0.000000
vt  0.969776 0.695924 0.000000
vt  0.969776 0.695924 0.000000
vt  0.969776 0.304076 0.000000
vt  0.969776 0.304076 0.000000
vt  0.969776 0.304076 0.000000
vt  0.922021 0.062443 0.000000
vt  0.922021 0.062443 0.000000
vt  0.922021 0.062443 0.000000
vt  0.030224 0.695924 0.000000
vt  0.030224 0.695924 0.000000
vt  0.030224 0.695924 0.000000
vt  0.077979 0.937557 0.000000
vt  0.077979 0.937557 0.000000
vt  0.077979 0.937557 0.000000
vt  0.077979 0.062443 0.000000
vt  0.077979 0.062443 0.000000
vt  0.077979 0.062443 0.000000
vt  0.030224 0.304076 0.000000
vt  0.030224 0.304076 0.000000
vt  0.030224 0.304076 0.000000

vn  0.000000 -1.000000 0.000000
vn  -1.000000 0.000000 0.000000
vn  0.000000 0.000000 1.000000
vn  0.000000 -1.000000 0.000000
vn  1.000000 0.000000 0.000000
vn  0.000000 0.000000 1.000000
vn  0.000000 -1.000000 0.000000
vn  1.000000 0.000000 0.000000
vn  0.000000 0.000000 -1.000000
vn  0.000000 -1.000000 0.000000
vn  -1.000000 0.000000 0.000000
vn  0.000000 0.000000 -1.000000
vn  0.000000 1.000000 0.000000
vn  1.000000 0.000000 0.000000
vn  0.000000 0.000000 1.000000
vn  0.000000 1.000000 0.000000
vn  1.000000 0.000000 0.000000
vn  0.000000 0.000000 -1.000000
vn  0.000000 1.000000 0.000000
vn  0.000000 0.000000 -1.000000
vn  -1.000000 0.000000 0.000000
vn  0.000000 1.000000 0.000000
vn  -1.000000 0.000000 0.000000
vn  0.000000 0.000000 1.000000
vn  0.000000 1.000000 0.000000
vn  1.000000 0.000000 0.000000
vn  0.000000 0.375000 0.927025
vn  0.000000 1.000000 0.000000
vn  -1.000000 0.000000 0.000000
vn  0.000000 0.375000 0.927025
vn  0.000000 1.000000 0.000000
vn  -1.000000 0.000000 0.000000
vn  0.000000 0.000000 -1.000000
vn  0.000000 1.000000 0.000000
vn  1.000000 0.000000 0.000000
vn  0.000000 0.000000 -1.000000
vn  -1.000000 0.000000 0.000000
vn  0.000000 0.502799 0.864403
vn  -1.000000 0.000000 0.000000
vn  0.000000 0.620417 0.784272
vn  -1.000000 0.000000 0.000000
vn  0.000000 0.725471 0.688253
vn  -1.000000 0.000000 0.000000
vn  0.000000 0.815834 0.578286
vn  -1.000000 0.000000 0.000000
vn  0.000000 0.889676 0.456593
vn  -1.000000 0.000000 0.000000
vn  0.000000 0.945496 0.325635
vn  -1.000000 0.000000 0.000000
vn  0.000000 0.982158 0.188059
vn  -1.000000 0.000000 0.000000
vn  0.000000 0.998911 0.046650
vn  -1.000000 0.000000 0.000000
vn  0.000000 0.995407 -0.095730
vn  -1.000000 0.000000 0.000000
vn  0.000000 0.971704 -0.236201
vn  -1.000000 0.000000 0.000000
vn  0.000000 0.928282 -0.371878
vn  -1.000000 0.000000 0.000000
vn  0.000000 0.000000 1.000000
vn  0.000000 0.866025 -0.500000
vn  1.000000 0.000000 0.000000
vn  0.000000 0.000000 1.000000
vn  0.000000 0.866025 -0.500000
vn  1.000000 0.000000 0.000000
vn  0.000000 0.928282 -0.371878
vn  1.000000 0.000000 0.000000
vn  0.000000 0.971704 -0.236201
vn  1.000000 0.000000 0.000000
vn  0.000000 0.995407 -0.095730
vn  1.000000 0.000000 0.000000
vn  0.000000 0.998911 0.046650
vn  1.000000 0.000000 0.000000
vn  0.000000 0.982158 0.188059
vn  1.000000 0.000000 0.000000
vn  0.000000 0.945496 0.325635
vn  1.000000 0.000000 0.000000
vn  0.000000 0.889676 0.456593
vn  1.000000 0.000000 0.000000
vn  0.000000 0.815834 0.578286
vn  1.000000 0.000000 0.000000
vn  0.000000 0.725471 0.688253
vn  1.000000 0.000000 0.000000
vn  0.000000 0.620417 0.784272
vn  1.000000 0.000000 0.000000
vn  0.000000 0.502799 0.864403
vn  0.000000 1.000000 0.000000
vn  1.000000 0.000000 0.000000
vn  0.000000 0.000000 1.000000
vn  0.000000 1.000000 0.000000
vn  -1.000000 0.000000 0.000000
vn  0.000000 0.000000 1.000000
vn  0.000000 1.000000 0.000000
vn  0.000000 0.000000 -1.000000
vn  -1.000000 0.000000 0.000000
vn  0.000000 1.000000 0.000000
vn  1.000000 0.000000 0.000000
vn  0.000000 0.000000 -1.000000
vn  0.000000 1.000000 0.000000
vn  1.000000 0.000000 0.000000
vn  0.000000 0.000000 1.000000
vn  0.000000 1.000000 0.000000
vn  1.000000 0.000000 0.000000
vn  0.000000 0.000000 -1.000000
vn  0.000000 1.000000 0.000000
vn  0.000000 0.000000 -1.000000
vn  -1.000000 0.000000 0.000000
vn  0.000000 1.000000 0.000000
vn  -1.000000 0.000000 0.000000
vn  0.000000 0.000000 1.000000
vn  0.000000 1.000000 0.000000
vn  -1.000000 0.000000 0.000000
vn  0.000000 0.000000 -1.000000
vn  0.000000 1.000000 0.000000
vn  -1.000000 0.000000 0.000000
vn  0.000000 0.000000 1.000000
vn  0.000000 1.000000 0.000000
vn  0.000000 0.000000 1.000000
vn  1.000000 0.000000 0.000000
vn  0.000000 1.000000 0.000000
vn  1.000000 0.000000 0.000000
vn  0.000000 0.000000 -1.000000
vn  0.000000 1.000000 0.000000
vn  -1.000000 0.000000 0.000000
vn  0.000000 0.000000 -1.000000
vn  0.000000 1.000000 0.000000
vn  -1.000000 0.000000 0.000000
vn  0.000000 0.000000 1.000000
vn  0.000000 1.000000 0.000000
vn  0.000000 0.000000 1.000000
vn  1.000000 0.000000 0.000000
vn  0.000000 1.000000 0.000000
vn  1.000000 0.000000 0.000000
vn  0.000000 0.000000 -1.000000
vn  0.000000 1.000000 0.000000
vn  1.000000 0.000000 0.000000
vn  0.000000 0.000000 1.000000
vn  0.000000 1.000000 0.000000
vn  -1.000000 0.000000 0.000000
vn  0.000000 0.000000 1.000000
vn  0.000000 1.000000 0.000000
vn  0.000000 0.000000 -1.000000
vn  -1.000000 0.000000 0.000000
vn  0.000000 1.000000 0.000000
vn  1.000000 0.000000 0.000000
vn  0.000000 0.000000 -1.000000
vn  0.000000 1.000000 0.000000
vn  -1.000000 0.000000 0.000000
vn  0.000000 0.000000 -1.000000
vn  0.000000 1.000000 0.000000
vn  1.000000 0.000000 0.000000
vn  0.000000 0.000000 -1.000000
vn  0.000000 1.000000 0.000000
vn  0.000000 0.000000 1.000000
vn  1.000000 0.000000 0.000000
vn  0.000000 1.000000 0.000000
vn  -1.000000 0.000000 0.000000
vn  0.000000 0.000000 1.000000
vn  0.000000 1.000000 0.000000
vn  -1.000000 0.000000 0.000000
vn  0.000000 0.000000 -1.000000
vn  0.000000 1.000000 0.000000
vn  1.000000 0.000000 0.000000
vn  0.000000 0.000000 -1.000000
vn  0.000000 1.000000 0.000000
vn  0.000000 0.000000 1.000000
vn  1.000000 0.000000 0.000000
vn  0.000000 1.000000 0.000000
vn  -1.000000 0.000000 0.000000
vn  0.000000 0.000000 1.000000


g 0
g 1
usemtl DEFAULT_MTL
f 7/7/7  4/4/4  1/1/1
f 60/60/60  3/3/3  6/6/6
f 10/10/10  7/7/7  1/1/1
f 32/32/32  11/11/11  2/2/2
f 32/32/32  2/2/2  29/29/29
f 37/37/37  29/29/29  2/2/2
f 39/39/39  37/37/37  2/2/2
f 41/41/41  39/39/39  2/2/2
f 43/43/43  41/41/41  2/2/2
f 45/45/45  43/43/43  2/2/2
f 47/47/47  45/45/45  2/2/2
f 49/49/49  47/47/47  2/2/2
f 51/51/51  49/49/49  2/2/2
f 53/53/53  51/51/51  2/2/2
f 55/55/55  53/53/53  2/2/2
f 57/57/57  55/55/55  2/2/2
f 59/59/59  57/57/57  2/2/2
f 62/62/62  5/5/5  8/8/8
f 63/63/63  60/60/60  6/6/6
f 36/36/36  9/9/9  12/12/12
f 35/35/35  26/26/26  8/8/8
f 85/85/85  8/8/8  26/26/26
f 65/65/65  62/62/62  8/8/8
f 67/67/67  65/65/65  8/8/8
f 69/69/69  67/67/67  8/8/8
f 71/71/71  69/69/69  8/8/8
f 73/73/73  71/71/71  8/8/8
f 75/75/75  73/73/73  8/8/8
f 77/77/77  75/75/75  8/8/8
f 79/79/79  77/77/77  8/8/8
f 81/81/81  79/79/79  8/8/8
f 83/83/83  81/81/81  8/8/8
f 85/85/85  83/83/83  8/8/8
f 36/36/36  12/12/12  33/33/33
f 31/31/31  16/16/16  13/13/13
f 88/88/88  14/14/14  17/17/17
f 31/31/31  13/13/13  22/22/22
f 92/92/92  24/24/24  15/15/15
f 92/92/92  15/15/15  89/89/89
f 25/25/25  19/19/19  16/16/16
f 98/98/98  18/18/18  20/20/20
f 28/28/28  25/25/25  16/16/16
f 31/31/31  28/28/28  16/16/16
f 97/97/97  88/88/88  17/17/17
f 25/25/25  22/22/22  19/19/19
f 95/95/95  21/21/21  23/23/23
f 98/98/98  20/20/20  94/94/94
f 34/34/34  22/22/22  25/25/25
f 34/34/34  31/31/31  22/22/22
f 95/95/95  23/23/23  91/91/91
f 38/38/38  27/27/27  30/30/30
f 86/86/86  27/27/27  38/38/38
f 86/86/86  38/38/38  40/40/40
f 84/84/84  40/40/40  42/42/42
f 86/86/86  40/40/40  84/84/84
f 82/82/82  42/42/42  44/44/44
f 84/84/84  42/42/42  82/82/82
f 80/80/80  44/44/44  46/46/46
f 82/82/82  44/44/44  80/80/80
f 78/78/78  46/46/46  48/48/48
f 80/80/80  46/46/46  78/78/78
f 76/76/76  48/48/48  50/50/50
f 78/78/78  48/48/48  76/76/76
f 74/74/74  50/50/50  52/52/52
f 76/76/76  50/50/50  74/74/74
f 72/72/72  52/52/52  54/54/54
f 74/74/74  52/52/52  72/72/72
f 70/70/70  54/54/54  56/56/56
f 72/72/72  54/54/54  70/70/70
f 68/68/68  56/56/56  58/58/58
f 70/70/70  56/56/56  68/68/68
f 66/66/66  58/58/58  61/61/61
f 68/68/68  58/58/58  66/66/66
f 66/66/66  61/61/61  64/64/64
f 126/126/126  90/90/90  87/87/87
f 120/120/120  87/87/87  96/96/96
f 108/108/108  87/87/87  99/99/99
f 114/114/114  99/99/99  87/87/87
f 129/129/129  87/87/87  108/108/108
f 117/117/117  114/114/114  87/87/87
f 120/120/120  117/117/117  87/87/87
f 129/129/129  126/126/126  87/87/87
f 126/126/126  93/93/93  90/90/90
f 120/120/120  96/96/96  93/93/93
f 105/105/105  102/102/102  93/93/93
f 111/111/111  93/93/93  102/102/102
f 132/132/132  105/105/105  93/93/93
f 120/120/120  93/93/93  111/111/111
f 126/126/126  123/123/123  93/93/93
f 132/132/132  93/93/93  123/123/123
f 114/114/114  102/102/102  99/99/99
f 136/136/136  100/100/100  103/103/103
f 140/140/140  110/110/110  101/101/101
f 140/140/140  101/101/101  137/137/137
f 146/146/146  104/104/104  106/106/106
f 114/114/114  111/111/111  102/102/102
f 145/145/145  136/136/136  103/103/103
f 132/132/132  108/108/108  105/105/105
f 143/143/143  107/107/107  109/109/109
f 146/146/146  106/106/106  142/142/142
f 132/132/132  129/129/129  108/108/108
f 143/143/143  109/109/109  139/139/139
f 148/148/148  112/112/112  115/115/115
f 152/152/152  122/122/122  113/113/113
f 152/152/152  113/113/113  149/149/149
f 158/158/158  116/116/116  118/118/118
f 157/157/157  148/148/148  115/115/115
f 155/155/155  119/119/119  121/121/121
f 158/158/158  118/118/118  154/154/154
f 155/155/155  121/121/121  151/151/151
f 160/160/160  124/124/124  127/127/127
f 164/164/164  134/134/134  125/125/125
f 164/164/164  125/125/125  161/161/161
f 170/170/170  128/128/128  130/130/130
f 169/169/169  160/160/160  127/127/127
f 167/167/167  131/131/131  133/133/133
f 170/170/170  130/130/130  166/166/166
f 167/167/167  133/133/133  163/163/163
f 141/141/141  138/138/138  135/135/135
f 144/144/144  141/141/141  135/135/135
f 153/153/153  150/150/150  147/147/147
f 156/156/156  153/153/153  147/147/147
f 165/165/165  162/162/162  159/159/159
f 168/168/168  165/165/165  159/159/159
