mtllib sauce_refrg.mtl

v  -225.000000 180.000000 -85.000000
v  -225.000000 180.000000 -85.000000
v  -225.000000 180.000000 -85.000000
v  -225.000000 180.000000 85.000000
v  -225.000000 180.000000 85.000000
v  -225.000000 180.000000 85.000000
v  225.000000 180.000000 85.000000
v  225.000000 180.000000 85.000000
v  225.000000 180.000000 85.000000
v  225.000000 180.000000 -85.000000
v  225.000000 180.000000 -85.000000
v  225.000000 180.000000 -85.000000
v  240.000000 180.000000 101.459504
v  240.000000 180.000000 101.459504
v  240.000000 180.000000 101.459504
v  -240.000000 180.000000 101.459504
v  -240.000000 180.000000 101.459504
v  -240.000000 180.000000 101.459504
v  -240.000000 180.000000 -100.000000
v  -240.000000 180.000000 -100.000000
v  -240.000000 180.000000 -100.000000
v  240.000000 180.000000 -100.000000
v  240.000000 180.000000 -100.000000
v  240.000000 180.000000 -100.000000
v  -240.000000 170.179492 130.000000
v  -240.000000 170.179492 130.000000
v  -240.000000 170.179492 130.000000
v  -240.000000 -150.000000 130.000000
v  -240.000000 -150.000000 130.000000
v  -240.000000 -150.000000 130.000000
v  -240.000000 -150.000000 -100.000000
v  -240.000000 -150.000000 -100.000000
v  -240.000000 -150.000000 -100.000000
v  -240.000000 177.214165 102.848105
v  -240.000000 177.214165 102.848105
v  -240.000000 174.690815 104.641398
v  -240.000000 174.690815 104.641398
v  -240.000000 172.469190 106.806786
v  -240.000000 172.469190 106.806786
v  -240.000000 170.605234 109.296597
v  -240.000000 170.605234 109.296597
v  -240.000000 169.152745 112.041029
v  -240.000000 169.152745 112.041029
v  -240.000000 168.142823 114.973451
v  -240.000000 168.142823 114.973451
v  -240.000000 167.597263 118.031116
v  -240.000000 167.597263 118.031116
v  -240.000000 167.532987 121.142426
v  -240.000000 167.532987 121.142426
v  -240.000000 167.951116 124.219189
v  -240.000000 167.951116 124.219189
v  -240.000000 168.836909 127.188537
v  -240.000000 168.836909 127.188537
v  240.000000 -150.000000 -100.000000
v  240.000000 -150.000000 -100.000000
v  240.000000 -150.000000 -100.000000
v  240.000000 -150.000000 130.000000
v  240.000000 -150.000000 130.000000
v  240.000000 -150.000000 130.000000
v  240.000000 170.179492 130.000000
v  240.000000 170.179492 130.000000
v  240.000000 170.179492 130.000000
v  240.000000 168.836909 127.188537
v  240.000000 168.836909 127.188537
v  240.000000 167.951116 124.219189
v  240.000000 167.951116 124.219189
v  240.000000 167.532987 121.142426
v  240.000000 167.532987 121.142426
v  240.000000 167.597263 118.031116
v  240.000000 167.597263 118.031116
v  240.000000 168.142823 114.973451
v  240.000000 168.142823 114.973451
v  240.000000 169.152745 112.041029
v  240.000000 169.152745 112.041029
v  240.000000 170.605234 109.296597
v  240.000000 170.605234 109.296597
v  240.000000 172.469190 106.806786
v  240.000000 172.469190 106.806786
v  240.000000 174.690815 104.641398
v  240.000000 174.690815 104.641398
v  240.000000 177.214165 102.848105
v  240.000000 177.214165 102.848105
v  -225.000000 40.000000 -85.000000
v  -225.000000 40.000000 -85.000000
v  -225.000000 40.000000 -85.000000
v  225.000000 40.000000 -85.000000
v  225.000000 40.000000 -85.000000
v  225.000000 40.000000 -85.000000
v  225.000000 40.000000 85.000000
v  225.000000 40.000000 85.000000
v  225.000000 40.000000 85.000000
v  -225.000000 40.000000 85.000000
v  -225.000000 40.000000 85.000000
v  -225.000000 40.000000 85.000000
v  -65.000000 40.000000 -65.000000
v  -65.000000 40.000000 -65.000000
v  -65.000000 40.000000 -65.000000
v  -65.000000 40.000000 65.000000
v  -65.000000 40.000000 65.000000
v  -65.000000 40.000000 65.000000
v  65.000000 40.000000 65.000000
v  65.000000 40.000000 65.000000
v  65.000000 40.000000 65.000000
v  65.000000 40.000000 -65.000000
v  65.000000 40.000000 -65.000000
v  65.000000 40.000000 -65.000000
v  -80.000000 40.000000 65.000000
v  -80.000000 40.000000 65.000000
v  -80.000000 40.000000 65.000000
v  -80.000000 40.000000 -65.000000
v  -80.000000 40.000000 -65.000000
v  -80.000000 40.000000 -65.000000
v  -210.000000 40.000000 -65.000000
v  -210.000000 40.000000 -65.000000
v  -210.000000 40.000000 -65.000000
v  -210.000000 40.000000 65.000000
v  -210.000000 40.000000 65.000000
v  -210.000000 40.000000 65.000000
v  210.000000 40.000000 65.000000
v  210.000000 40.000000 65.000000
v  210.000000 40.000000 65.000000
v  210.000000 40.000000 -65.000000
v  210.000000 40.000000 -65.000000
v  210.000000 40.000000 -65.000000
v  80.000000 40.000000 -65.000000
v  80.000000 40.000000 -65.000000
v  80.000000 40.000000 -65.000000
v  80.000000 40.000000 65.000000
v  80.000000 40.000000 65.000000
v  80.000000 40.000000 65.000000
v  -65.000000 20.000000 -65.000000
v  -65.000000 20.000000 -65.000000
v  -65.000000 20.000000 -65.000000
v  65.000000 20.000000 -65.000000
v  65.000000 20.000000 -65.000000
v  65.000000 20.000000 -65.000000
v  65.000000 20.000000 65.000000
v  65.000000 20.000000 65.000000
v  65.000000 20.000000 65.000000
v  -65.000000 20.000000 65.000000
v  -65.000000 20.000000 65.000000
v  -65.000000 20.000000 65.000000
v  -80.000000 20.000000 65.000000
v  -80.000000 20.000000 65.000000
v  -80.000000 20.000000 65.000000
v  -210.000000 20.000000 65.000000
v  -210.000000 20.000000 65.000000
v  -210.000000 20.000000 65.000000
v  -210.000000 20.000000 -65.000000
v  -210.000000 20.000000 -65.000000
v  -210.000000 20.000000 -65.000000
v  -80.000000 20.000000 -65.000000
v  -80.000000 20.000000 -65.000000
v  -80.000000 20.000000 -65.000000
v  210.000000 20.000000 65.000000
v  210.000000 20.000000 65.000000
v  210.000000 20.000000 65.000000
v  80.000000 20.000000 65.000000
v  80.000000 20.000000 65.000000
v  80.000000 20.000000 65.000000
v  80.000000 20.000000 -65.000000
v  80.000000 20.000000 -65.000000
v  80.000000 20.000000 -65.000000
v  210.000000 20.000000 -65.000000
v  210.000000 20.000000 -65.000000
v  210.000000 20.000000 -65.000000
v  215.000000 -120.000000 -75.000000
v  215.000000 -120.000000 -75.000000
v  215.000000 -120.000000 -75.000000
v  215.000000 -120.000000 105.000000
v  215.000000 -120.000000 105.000000
v  215.000000 -120.000000 105.000000
v  -215.000000 -120.000000 105.000000
v  -215.000000 -120.000000 105.000000
v  -215.000000 -120.000000 105.000000
v  -215.000000 -120.000000 -75.000000
v  -215.000000 -120.000000 -75.000000
v  -215.000000 -120.000000 -75.000000
v  215.000000 -20.000000 -75.000000
v  215.000000 -20.000000 -75.000000
v  215.000000 -20.000000 -75.000000
v  -215.000000 -20.000000 -75.000000
v  -215.000000 -20.000000 -75.000000
v  -215.000000 -20.000000 -75.000000
v  -215.000000 -20.000000 105.000000
v  -215.000000 -20.000000 105.000000
v  -215.000000 -20.000000 105.000000
v  215.000000 -20.000000 105.000000
v  215.000000 -20.000000 105.000000
v  215.000000 -20.000000 105.000000

vt  0.904882 0.311968 0.000000
vt  0.904882 0.311968 0.000000
vt  0.904882 0.311968 0.000000
vt  0.904882 0.688032 0.000000
vt  0.904882 0.688032 0.000000
vt  0.904882 0.688032 0.000000
vt  0.610875 0.688032 0.000000
vt  0.610875 0.688032 0.000000
vt  0.610875 0.688032 0.000000
vt  0.610875 0.311968 0.000000
vt  0.610875 0.311968 0.000000
vt  0.610875 0.311968 0.000000
vt  0.605750 0.713769 0.000000
vt  0.605750 0.713769 0.000000
vt  0.605750 0.713769 0.000000
vt  0.910007 0.713769 0.000000
vt  0.910007 0.713769 0.000000
vt  0.910007 0.713769 0.000000
vt  0.910007 0.289097 0.000000
vt  0.910007 0.289097 0.000000
vt  0.910007 0.289097 0.000000
vt  0.605750 0.289097 0.000000
vt  0.605750 0.289097 0.000000
vt  0.605750 0.289097 0.000000
vt  0.914388 0.772723 0.000000
vt  0.914388 0.772723 0.000000
vt  0.914388 0.772723 0.000000
vt  0.076424 0.782245 0.000000
vt  0.076424 0.782245 0.000000
vt  0.076424 0.782245 0.000000
vt  0.076424 0.277370 0.000000
vt  0.076424 0.277370 0.000000
vt  0.076424 0.277370 0.000000
vt  0.911233 0.717608 0.000000
vt  0.911233 0.717608 0.000000
vt  0.912355 0.722152 0.000000
vt  0.912355 0.722152 0.000000
vt  0.913352 0.727314 0.000000
vt  0.913352 0.727314 0.000000
vt  0.914195 0.732970 0.000000
vt  0.914195 0.732970 0.000000
vt  0.914856 0.738946 0.000000
vt  0.914856 0.738946 0.000000
vt  0.915319 0.745082 0.000000
vt  0.915319 0.745082 0.000000
vt  0.915569 0.751230 0.000000
vt  0.915569 0.751230 0.000000
vt  0.915599 0.757230 0.000000
vt  0.915599 0.757230 0.000000
vt  0.915407 0.762898 0.000000
vt  0.915407 0.762898 0.000000
vt  0.915001 0.768094 0.000000
vt  0.915001 0.768094 0.000000
vt  0.408538 0.277370 0.000000
vt  0.408538 0.277370 0.000000
vt  0.408538 0.277370 0.000000
vt  0.408538 0.782245 0.000000
vt  0.408538 0.782245 0.000000
vt  0.408538 0.782245 0.000000
vt  0.601369 0.772723 0.000000
vt  0.601369 0.772723 0.000000
vt  0.601369 0.772723 0.000000
vt  0.600757 0.768094 0.000000
vt  0.600757 0.768094 0.000000
vt  0.600351 0.762898 0.000000
vt  0.600351 0.762898 0.000000
vt  0.600159 0.757230 0.000000
vt  0.600159 0.757230 0.000000
vt  0.600188 0.751230 0.000000
vt  0.600188 0.751230 0.000000
vt  0.600439 0.745082 0.000000
vt  0.600439 0.745082 0.000000
vt  0.600901 0.738946 0.000000
vt  0.600901 0.738946 0.000000
vt  0.601562 0.732970 0.000000
vt  0.601562 0.732970 0.000000
vt  0.602406 0.727314 0.000000
vt  0.602406 0.727314 0.000000
vt  0.603403 0.722152 0.000000
vt  0.603403 0.722152 0.000000
vt  0.604525 0.717608 0.000000
vt  0.604525 0.717608 0.000000
vt  0.986713 0.266587 0.000000
vt  0.986713 0.266587 0.000000
vt  0.986713 0.266587 0.000000
vt  0.529044 0.266587 0.000000
vt  0.529044 0.266587 0.000000
vt  0.529044 0.266587 0.000000
vt  0.529044 0.733413 0.000000
vt  0.529044 0.733413 0.000000
vt  0.529044 0.733413 0.000000
vt  0.986713 0.733413 0.000000
vt  0.986713 0.733413 0.000000
vt  0.986713 0.733413 0.000000
vt  0.925075 0.037583 0.000000
vt  0.925075 0.037583 0.000000
vt  0.925075 0.037583 0.000000
vt  0.925075 0.962417 0.000000
vt  0.925075 0.962417 0.000000
vt  0.925075 0.962417 0.000000
vt  0.590682 0.962417 0.000000
vt  0.590682 0.962417 0.000000
vt  0.590682 0.962417 0.000000
vt  0.590682 0.037583 0.000000
vt  0.590682 0.037583 0.000000
vt  0.590682 0.037583 0.000000
vt  0.939513 0.911932 0.000000
vt  0.939513 0.911932 0.000000
vt  0.939513 0.911932 0.000000
vt  0.939513 0.088068 0.000000
vt  0.939513 0.088068 0.000000
vt  0.939513 0.088068 0.000000
vt  0.984699 0.306517 0.000000
vt  0.984699 0.306517 0.000000
vt  0.984699 0.306517 0.000000
vt  0.984699 0.693483 0.000000
vt  0.984699 0.693483 0.000000
vt  0.984699 0.693483 0.000000
vt  0.531059 0.693483 0.000000
vt  0.531059 0.693483 0.000000
vt  0.531059 0.693483 0.000000
vt  0.531059 0.306517 0.000000
vt  0.531059 0.306517 0.000000
vt  0.531059 0.306517 0.000000
vt  0.576244 0.088068 0.000000
vt  0.576244 0.088068 0.000000
vt  0.576244 0.088068 0.000000
vt  0.576244 0.911932 0.000000
vt  0.576244 0.911932 0.000000
vt  0.576244 0.911932 0.000000
vt  0.966607 0.000000 0.000000
vt  0.966607 0.000000 0.000000
vt  0.966607 0.000000 0.000000
vt  0.549151 0.000000 0.000000
vt  0.549151 0.000000 0.000000
vt  0.549151 0.000000 0.000000
vt  0.549151 1.000000 0.000000
vt  0.549151 1.000000 0.000000
vt  0.549151 1.000000 0.000000
vt  0.966607 1.000000 0.000000
vt  0.966607 1.000000 0.000000
vt  0.966607 1.000000 0.000000
vt  0.975387 0.937557 0.000000
vt  0.975387 0.937557 0.000000
vt  0.975387 0.937557 0.000000
vt  1.000000 0.695924 0.000000
vt  1.000000 0.695924 0.000000
vt  1.000000 0.695924 0.000000
vt  1.000000 0.304076 0.000000
vt  1.000000 0.304076 0.000000
vt  1.000000 0.304076 0.000000
vt  0.975387 0.062443 0.000000
vt  0.975387 0.062443 0.000000
vt  0.975387 0.062443 0.000000
vt  0.515757 0.695924 0.000000
vt  0.515757 0.695924 0.000000
vt  0.515757 0.695924 0.000000
vt  0.540370 0.937557 0.000000
vt  0.540370 0.937557 0.000000
vt  0.540370 0.937557 0.000000
vt  0.540370 0.062443 0.000000
vt  0.540370 0.062443 0.000000
vt  0.540370 0.062443 0.000000
vt  0.515757 0.304076 0.000000
vt  0.515757 0.304076 0.000000
vt  0.515757 0.304076 0.000000
vt  0.416664 0.306189 0.000000
vt  0.416664 0.306189 0.000000
vt  0.416664 0.306189 0.000000
vt  0.416664 0.764223 0.000000
vt  0.416664 0.764223 0.000000
vt  0.416664 0.764223 0.000000
vt  0.068299 0.764223 0.000000
vt  0.068299 0.764223 0.000000
vt  0.068299 0.764223 0.000000
vt  0.068299 0.306189 0.000000
vt  0.068299 0.306189 0.000000
vt  0.068299 0.306189 0.000000
vt  0.484963 0.280870 0.000000
vt  0.484963 0.280870 0.000000
vt  0.484963 0.280870 0.000000
vt  0.000000 0.280870 0.000000
vt  0.000000 0.280870 0.000000
vt  0.000000 0.280870 0.000000
vt  0.000000 0.796677 0.000000
vt  0.000000 0.796677 0.000000
vt  0.000000 0.796677 0.000000
vt  0.484963 0.796677 0.000000
vt  0.484963 0.796677 0.000000
vt  0.484963 0.796677 0.000000

vn  0.000000 1.000000 0.000000
vn  1.000000 0.000000 0.000000
vn  0.000000 0.000000 1.000000
vn  0.000000 1.000000 0.000000
vn  1.000000 0.000000 0.000000
vn  0.000000 0.000000 -1.000000
vn  0.000000 1.000000 0.000000
vn  0.000000 0.000000 -1.000000
vn  -1.000000 0.000000 0.000000
vn  0.000000 1.000000 0.000000
vn  -1.000000 0.000000 0.000000
vn  0.000000 0.000000 1.000000
vn  0.000000 1.000000 0.000000
vn  1.000000 0.000000 0.000000
vn  0.000000 0.375000 0.927025
vn  0.000000 1.000000 0.000000
vn  -1.000000 0.000000 0.000000
vn  0.000000 0.375000 0.927025
vn  0.000000 1.000000 0.000000
vn  -1.000000 0.000000 0.000000
vn  0.000000 0.000000 -1.000000
vn  0.000000 1.000000 0.000000
vn  1.000000 0.000000 0.000000
vn  0.000000 0.000000 -1.000000
vn  -1.000000 0.000000 0.000000
vn  0.000000 0.000000 1.000000
vn  0.000000 0.866025 -0.500000
vn  -1.000000 0.000000 0.000000
vn  0.000000 0.000000 1.000000
vn  0.000000 -1.000000 0.000000
vn  -1.000000 0.000000 0.000000
vn  0.000000 0.000000 -1.000000
vn  0.000000 -1.000000 0.000000
vn  -1.000000 0.000000 0.000000
vn  0.000000 0.513950 0.857820
vn  -1.000000 0.000000 0.000000
vn  0.000000 0.640518 0.767943
vn  -1.000000 0.000000 0.000000
vn  0.000000 0.751655 0.659556
vn  -1.000000 0.000000 0.000000
vn  0.000000 0.844684 0.535266
vn  -1.000000 0.000000 0.000000
vn  0.000000 0.917359 0.398060
vn  -1.000000 0.000000 0.000000
vn  0.000000 0.967925 0.251238
vn  -1.000000 0.000000 0.000000
vn  0.000000 0.995153 0.098335
vn  -1.000000 0.000000 0.000000
vn  0.000000 0.998376 -0.056968
vn  -1.000000 0.000000 0.000000
vn  0.000000 0.977500 -0.210934
vn  -1.000000 0.000000 0.000000
vn  0.000000 0.933023 -0.359816
vn  1.000000 0.000000 0.000000
vn  0.000000 0.000000 -1.000000
vn  0.000000 -1.000000 0.000000
vn  1.000000 0.000000 0.000000
vn  0.000000 0.000000 1.000000
vn  0.000000 -1.000000 0.000000
vn  1.000000 0.000000 0.000000
vn  0.000000 0.000000 1.000000
vn  0.000000 0.866025 -0.500000
vn  1.000000 0.000000 0.000000
vn  0.000000 0.933023 -0.359816
vn  1.000000 0.000000 0.000000
vn  0.000000 0.977500 -0.210934
vn  1.000000 0.000000 0.000000
vn  0.000000 0.998376 -0.056968
vn  1.000000 0.000000 0.000000
vn  0.000000 0.995153 0.098335
vn  1.000000 0.000000 0.000000
vn  0.000000 0.967925 0.251238
vn  1.000000 0.000000 0.000000
vn  0.000000 0.917359 0.398060
vn  1.000000 0.000000 0.000000
vn  0.000000 0.844684 0.535266
vn  1.000000 0.000000 0.000000
vn  0.000000 0.751655 0.659556
vn  1.000000 0.000000 0.000000
vn  0.000000 0.640518 0.767943
vn  1.000000 0.000000 0.000000
vn  0.000000 0.513950 0.857820
vn  0.000000 1.000000 0.000000
vn  1.000000 0.000000 0.000000
vn  0.000000 0.000000 1.000000
vn  0.000000 1.000000 0.000000
vn  -1.000000 0.000000 0.000000
vn  0.000000 0.000000 1.000000
vn  0.000000 1.000000 0.000000
vn  0.000000 0.000000 -1.000000
vn  -1.000000 0.000000 0.000000
vn  0.000000 1.000000 0.000000
vn  1.000000 0.000000 0.000000
vn  0.000000 0.000000 -1.000000
vn  0.000000 1.000000 0.000000
vn  1.000000 0.000000 0.000000
vn  0.000000 0.000000 1.000000
vn  0.000000 1.000000 0.000000
vn  1.000000 0.000000 0.000000
vn  0.000000 0.000000 -1.000000
vn  0.000000 1.000000 0.000000
vn  0.000000 0.000000 -1.000000
vn  -1.000000 0.000000 0.000000
vn  0.000000 1.000000 0.000000
vn  -1.000000 0.000000 0.000000
vn  0.000000 0.000000 1.000000
vn  0.000000 1.000000 0.000000
vn  -1.000000 0.000000 0.000000
vn  0.000000 0.000000 -1.000000
vn  0.000000 1.000000 0.000000
vn  -1.000000 0.000000 0.000000
vn  0.000000 0.000000 1.000000
vn  0.000000 1.000000 0.000000
vn  0.000000 0.000000 1.000000
vn  1.000000 0.000000 0.000000
vn  0.000000 1.000000 0.000000
vn  1.000000 0.000000 0.000000
vn  0.000000 0.000000 -1.000000
vn  0.000000 1.000000 0.000000
vn  -1.000000 0.000000 0.000000
vn  0.000000 0.000000 -1.000000
vn  0.000000 1.000000 0.000000
vn  -1.000000 0.000000 0.000000
vn  0.000000 0.000000 1.000000
vn  0.000000 1.000000 0.000000
vn  0.000000 0.000000 1.000000
vn  1.000000 0.000000 0.000000
vn  0.000000 1.000000 0.000000
vn  1.000000 0.000000 0.000000
vn  0.000000 0.000000 -1.000000
vn  0.000000 1.000000 0.000000
vn  1.000000 0.000000 0.000000
vn  0.000000 0.000000 1.000000
vn  0.000000 1.000000 0.000000
vn  -1.000000 0.000000 0.000000
vn  0.000000 0.000000 1.000000
vn  0.000000 1.000000 0.000000
vn  0.000000 0.000000 -1.000000
vn  -1.000000 0.000000 0.000000
vn  0.000000 1.000000 0.000000
vn  1.000000 0.000000 0.000000
vn  0.000000 0.000000 -1.000000
vn  0.000000 1.000000 0.000000
vn  -1.000000 0.000000 0.000000
vn  0.000000 0.000000 -1.000000
vn  0.000000 1.000000 0.000000
vn  1.000000 0.000000 0.000000
vn  0.000000 0.000000 -1.000000
vn  0.000000 1.000000 0.000000
vn  0.000000 0.000000 1.000000
vn  1.000000 0.000000 0.000000
vn  0.000000 1.000000 0.000000
vn  -1.000000 0.000000 0.000000
vn  0.000000 0.000000 1.000000
vn  0.000000 1.000000 0.000000
vn  -1.000000 0.000000 0.000000
vn  0.000000 0.000000 -1.000000
vn  0.000000 1.000000 0.000000
vn  1.000000 0.000000 0.000000
vn  0.000000 0.000000 -1.000000
vn  0.000000 1.000000 0.000000
vn  0.000000 0.000000 1.000000
vn  1.000000 0.000000 0.000000
vn  0.000000 1.000000 0.000000
vn  -1.000000 0.000000 0.000000
vn  0.000000 0.000000 1.000000
vn  0.000000 1.000000 0.000000
vn  0.000000 0.000000 1.000000
vn  -1.000000 0.000000 0.000000
vn  0.000000 1.000000 0.000000
vn  0.000000 0.000000 -1.000000
vn  -1.000000 0.000000 0.000000
vn  0.000000 1.000000 0.000000
vn  1.000000 0.000000 0.000000
vn  0.000000 0.000000 -1.000000
vn  0.000000 1.000000 0.000000
vn  0.000000 0.000000 1.000000
vn  1.000000 0.000000 0.000000
vn  0.000000 -1.000000 0.000000
vn  0.000000 0.000000 1.000000
vn  -1.000000 0.000000 0.000000
vn  0.000000 -1.000000 0.000000
vn  0.000000 0.000000 1.000000
vn  1.000000 0.000000 0.000000
vn  0.000000 -1.000000 0.000000
vn  1.000000 0.000000 0.000000
vn  0.000000 0.000000 -1.000000
vn  0.000000 -1.000000 0.000000
vn  0.000000 0.000000 -1.000000
vn  -1.000000 0.000000 0.000000


g 0
g 1
usemtl DEFAULT_MTL
f 19/19/19  4/4/4  1/1/1
f 84/84/84  2/2/2  5/5/5
f 19/19/19  1/1/1  10/10/10
f 88/88/88  12/12/12  3/3/3
f 88/88/88  3/3/3  85/85/85
f 13/13/13  7/7/7  4/4/4
f 94/94/94  6/6/6  8/8/8
f 16/16/16  13/13/13  4/4/4
f 19/19/19  16/16/16  4/4/4
f 93/93/93  84/84/84  5/5/5
f 13/13/13  10/10/10  7/7/7
f 91/91/91  9/9/9  11/11/11
f 94/94/94  8/8/8  90/90/90
f 22/22/22  10/10/10  13/13/13
f 22/22/22  19/19/19  10/10/10
f 91/91/91  11/11/11  87/87/87
f 35/35/35  15/15/15  18/18/18
f 81/81/81  23/23/23  14/14/14
f 82/82/82  15/15/15  35/35/35
f 31/31/31  17/17/17  20/20/20
f 34/34/34  17/17/17  31/31/31
f 32/32/32  21/21/21  24/24/24
f 55/55/55  32/32/32  24/24/24
f 57/57/57  54/54/54  23/23/23
f 69/69/69  57/57/57  23/23/23
f 71/71/71  69/69/69  23/23/23
f 73/73/73  71/71/71  23/23/23
f 75/75/75  73/73/73  23/23/23
f 77/77/77  75/75/75  23/23/23
f 79/79/79  77/77/77  23/23/23
f 81/81/81  79/79/79  23/23/23
f 31/31/31  28/28/28  25/25/25
f 58/58/58  26/26/26  29/29/29
f 52/52/52  31/31/31  25/25/25
f 64/64/64  53/53/53  27/27/27
f 61/61/61  26/26/26  58/58/58
f 64/64/64  27/27/27  62/62/62
f 56/56/56  30/30/30  33/33/33
f 59/59/59  30/30/30  56/56/56
f 36/36/36  34/34/34  31/31/31
f 38/38/38  36/36/36  31/31/31
f 40/40/40  38/38/38  31/31/31
f 42/42/42  40/40/40  31/31/31
f 44/44/44  42/42/42  31/31/31
f 46/46/46  44/44/44  31/31/31
f 48/48/48  46/46/46  31/31/31
f 50/50/50  48/48/48  31/31/31
f 52/52/52  50/50/50  31/31/31
f 82/82/82  35/35/35  37/37/37
f 80/80/80  37/37/37  39/39/39
f 82/82/82  37/37/37  80/80/80
f 78/78/78  39/39/39  41/41/41
f 80/80/80  39/39/39  78/78/78
f 76/76/76  41/41/41  43/43/43
f 78/78/78  41/41/41  76/76/76
f 74/74/74  43/43/43  45/45/45
f 76/76/76  43/43/43  74/74/74
f 72/72/72  45/45/45  47/47/47
f 74/74/74  45/45/45  72/72/72
f 70/70/70  47/47/47  49/49/49
f 72/72/72  47/47/47  70/70/70
f 68/68/68  49/49/49  51/51/51
f 70/70/70  49/49/49  68/68/68
f 66/66/66  51/51/51  53/53/53
f 68/68/68  51/51/51  66/66/66
f 66/66/66  53/53/53  64/64/64
f 63/63/63  60/60/60  57/57/57
f 65/65/65  63/63/63  57/57/57
f 67/67/67  65/65/65  57/57/57
f 69/69/69  67/67/67  57/57/57
f 122/122/122  86/86/86  83/83/83
f 116/116/116  83/83/83  92/92/92
f 104/104/104  83/83/83  95/95/95
f 110/110/110  95/95/95  83/83/83
f 125/125/125  83/83/83  104/104/104
f 113/113/113  110/110/110  83/83/83
f 116/116/116  113/113/113  83/83/83
f 125/125/125  122/122/122  83/83/83
f 122/122/122  89/89/89  86/86/86
f 116/116/116  92/92/92  89/89/89
f 101/101/101  98/98/98  89/89/89
f 107/107/107  89/89/89  98/98/98
f 128/128/128  101/101/101  89/89/89
f 116/116/116  89/89/89  107/107/107
f 122/122/122  119/119/119  89/89/89
f 128/128/128  89/89/89  119/119/119
f 110/110/110  98/98/98  95/95/95
f 132/132/132  96/96/96  99/99/99
f 136/136/136  106/106/106  97/97/97
f 136/136/136  97/97/97  133/133/133
f 142/142/142  100/100/100  102/102/102
f 110/110/110  107/107/107  98/98/98
f 141/141/141  132/132/132  99/99/99
f 128/128/128  104/104/104  101/101/101
f 139/139/139  103/103/103  105/105/105
f 142/142/142  102/102/102  138/138/138
f 128/128/128  125/125/125  104/104/104
f 139/139/139  105/105/105  135/135/135
f 144/144/144  108/108/108  111/111/111
f 148/148/148  118/118/118  109/109/109
f 148/148/148  109/109/109  145/145/145
f 154/154/154  112/112/112  114/114/114
f 153/153/153  144/144/144  111/111/111
f 151/151/151  115/115/115  117/117/117
f 154/154/154  114/114/114  150/150/150
f 151/151/151  117/117/117  147/147/147
f 156/156/156  120/120/120  123/123/123
f 160/160/160  130/130/130  121/121/121
f 160/160/160  121/121/121  157/157/157
f 166/166/166  124/124/124  126/126/126
f 165/165/165  156/156/156  123/123/123
f 163/163/163  127/127/127  129/129/129
f 166/166/166  126/126/126  162/162/162
f 163/163/163  129/129/129  159/159/159
f 137/137/137  134/134/134  131/131/131
f 140/140/140  137/137/137  131/131/131
f 149/149/149  146/146/146  143/143/143
f 152/152/152  149/149/149  143/143/143
f 161/161/161  158/158/158  155/155/155
f 164/164/164  161/161/161  155/155/155
f 176/176/176  170/170/170  167/167/167
f 181/181/181  169/169/169  172/172/172
f 183/183/183  177/177/177  168/168/168
f 183/183/183  168/168/168  180/180/180
f 176/176/176  173/173/173  170/170/170
f 189/189/189  171/171/171  175/175/175
f 190/190/190  181/181/181  172/172/172
f 186/186/186  174/174/174  178/178/178
f 189/189/189  175/175/175  187/187/187
f 186/186/186  178/178/178  184/184/184
f 185/185/185  182/182/182  179/179/179
f 188/188/188  185/185/185  179/179/179
